<?xml version="1.0" encoding="UTF-8" standalone="no"?>
<!DOCTYPE svg PUBLIC "-//W3C//DTD SVG 1.1//EN"
 "http://www.w3.org/Graphics/SVG/1.1/DTD/svg11.dtd">
<!-- Generated by graphviz version 12.2.1 (20241206.2353)
 -->
<!-- Title: AIAnalysis Pages: 1 -->
<svg width="2351pt" height="759pt"
 viewBox="0.00 0.00 2350.50 759.00" xmlns="http://www.w3.org/2000/svg" xmlns:xlink="http://www.w3.org/1999/xlink">
<g id="graph0" class="graph" transform="scale(1 1) rotate(0) translate(4 755)">
<title>AIAnalysis</title>
<polygon fill="white" stroke="none" points="-4,4 -4,-755 2346.5,-755 2346.5,4 -4,4"/>
<g id="clust1" class="cluster">
<title>cluster_ai_process</title>
<polygon fill="lightblue" stroke="lightblue" points="74.38,-365 74.38,-552 2045.75,-552 2045.75,-365 74.38,-365"/>
<text text-anchor="middle" x="1060.06" y="-534.7" font-family="Times,serif" font-size="14.00">🧠 Процесс AI анализа важности сообщений</text>
</g>
<g id="clust2" class="cluster">
<title>cluster_criteria</title>
<polygon fill="lightgreen" stroke="lightgreen" points="1279.75,-8 1279.75,-357 1478,-357 1478,-8 1279.75,-8"/>
<text text-anchor="middle" x="1378.88" y="-339.7" font-family="Times,serif" font-size="14.00">📋 Критерии оценки важности</text>
</g>
<g id="clust3" class="cluster">
<title>cluster_prompt</title>
<polygon fill="lightyellow" stroke="lightyellow" points="8,-560 8,-743 241,-743 241,-560 8,-560"/>
<text text-anchor="middle" x="124.5" y="-725.7" font-family="Times,serif" font-size="14.00">📄 Шаблон промпта для GigaChat</text>
</g>
<g id="clust4" class="cluster">
<title>cluster_examples</title>
<polygon fill="lightpink" stroke="lightpink" points="1075.5,-91 1075.5,-268 1258.75,-268 1258.75,-91 1075.5,-91"/>
<text text-anchor="middle" x="1167.12" y="-250.7" font-family="Times,serif" font-size="14.00">🔑 Примеры ключевых слов</text>
</g>
<g id="clust5" class="cluster">
<title>cluster_results</title>
<polygon fill="lightblue" stroke="lightblue" points="2109.25,-375 2109.25,-508 2334.5,-508 2334.5,-375 2109.25,-375"/>
<text text-anchor="middle" x="2221.88" y="-490.7" font-family="Times,serif" font-size="14.00">🎯 Результаты анализа</text>
</g>
<!-- input_message -->
<g id="node1" class="node">
<title>input_message</title>
<polygon fill="lightgreen" stroke="black" points="162.5,-409 86.5,-409 86.5,-373 162.5,-373 162.5,-409"/>
<text text-anchor="middle" x="124.5" y="-394.62" font-family="Arial" font-size="10.00">📨 Входящее</text>
<text text-anchor="middle" x="124.5" y="-380.38" font-family="Arial" font-size="10.00">сообщение</text>
</g>
<!-- preprocess -->
<g id="node4" class="node">
<title>preprocess</title>
<polygon fill="lightyellow" stroke="black" points="370,-463 270,-463 270,-427 370,-427 370,-463"/>
<text text-anchor="middle" x="320" y="-448.62" font-family="Arial" font-size="10.00">🔧 Предобработка</text>
<text text-anchor="middle" x="320" y="-434.38" font-family="Arial" font-size="10.00">сообщения</text>
</g>
<!-- input_message&#45;&gt;preprocess -->
<g id="edge1" class="edge">
<title>input_message&#45;&gt;preprocess</title>
<path fill="none" stroke="black" d="M162.95,-390.92C185.67,-394.67 215.18,-401.54 241,-409 253.99,-412.76 268,-417.41 280.52,-422.24"/>
<polygon fill="black" stroke="black" points="279.08,-425.44 289.66,-425.95 281.71,-418.95 279.08,-425.44"/>
</g>
<!-- input_message&#45;&gt;preprocess -->
<g id="edge30" class="edge">
<title>input_message&#45;&gt;preprocess</title>
<path fill="none" stroke="blue" stroke-width="2" d="M162.95,-406.53C185.67,-412.67 215.18,-419.54 241,-427 246.41,-428.56 252,-430.29 257.59,-432.05"/>
<polygon fill="blue" stroke="blue" stroke-width="2" points="256.26,-435.3 266.85,-434.99 258.38,-428.63 256.26,-435.3"/>
</g>
<!-- user_prefs -->
<g id="node2" class="node">
<title>user_prefs</title>
<polygon fill="lightgreen" stroke="black" points="164,-463 85,-463 85,-427 164,-427 164,-463"/>
<text text-anchor="middle" x="124.5" y="-448.62" font-family="Arial" font-size="10.00">👤 Настройки</text>
<text text-anchor="middle" x="124.5" y="-434.38" font-family="Arial" font-size="10.00">пользователя</text>
</g>
<!-- user_prefs&#45;&gt;preprocess -->
<g id="edge2" class="edge">
<title>user_prefs&#45;&gt;preprocess</title>
<path fill="none" stroke="black" d="M164.19,-445C191.09,-445 227.48,-445 258.22,-445"/>
<polygon fill="black" stroke="black" points="258.18,-448.5 268.18,-445 258.18,-441.5 258.18,-448.5"/>
</g>
<!-- global_config -->
<g id="node3" class="node">
<title>global_config</title>
<polygon fill="lightgreen" stroke="black" points="166.62,-517 82.38,-517 82.38,-481 166.62,-481 166.62,-517"/>
<text text-anchor="middle" x="124.5" y="-502.62" font-family="Arial" font-size="10.00">⚙️ Глобальные</text>
<text text-anchor="middle" x="124.5" y="-488.38" font-family="Arial" font-size="10.00">настройки</text>
</g>
<!-- global_config&#45;&gt;preprocess -->
<g id="edge3" class="edge">
<title>global_config&#45;&gt;preprocess</title>
<path fill="none" stroke="black" d="M166.93,-490.41C189.05,-485.54 216.67,-479.03 241,-472 246.85,-470.31 252.91,-468.43 258.94,-466.49"/>
<polygon fill="black" stroke="black" points="259.9,-469.86 268.29,-463.39 257.7,-463.21 259.9,-469.86"/>
</g>
<!-- extract_text -->
<g id="node5" class="node">
<title>extract_text</title>
<polygon fill="lightyellow" stroke="black" points="490.5,-467 407,-467 407,-431 490.5,-431 490.5,-467"/>
<text text-anchor="middle" x="448.75" y="-452.62" font-family="Arial" font-size="10.00">📝 Извлечение</text>
<text text-anchor="middle" x="448.75" y="-438.38" font-family="Arial" font-size="10.00">текста</text>
</g>
<!-- preprocess&#45;&gt;extract_text -->
<g id="edge4" class="edge">
<title>preprocess&#45;&gt;extract_text</title>
<path fill="none" stroke="black" d="M370.37,-446.56C378.49,-446.81 386.94,-447.08 395.15,-447.34"/>
<polygon fill="black" stroke="black" points="394.9,-450.83 405,-447.65 395.12,-443.84 394.9,-450.83"/>
</g>
<!-- clean_text -->
<g id="node6" class="node">
<title>clean_text</title>
<polygon fill="lightyellow" stroke="black" points="593.75,-469 527.5,-469 527.5,-433 593.75,-433 593.75,-469"/>
<text text-anchor="middle" x="560.62" y="-454.62" font-family="Arial" font-size="10.00">🧹 Очистка</text>
<text text-anchor="middle" x="560.62" y="-440.38" font-family="Arial" font-size="10.00">текста</text>
</g>
<!-- extract_text&#45;&gt;clean_text -->
<g id="edge5" class="edge">
<title>extract_text&#45;&gt;clean_text</title>
<path fill="none" stroke="black" d="M490.98,-449.75C499.09,-449.9 507.63,-450.05 515.82,-450.2"/>
<polygon fill="black" stroke="black" points="515.52,-453.7 525.58,-450.38 515.65,-446.7 515.52,-453.7"/>
</g>
<!-- create_prompt -->
<g id="node7" class="node">
<title>create_prompt</title>
<polygon fill="lightyellow" stroke="black" points="726.25,-470 630.75,-470 630.75,-434 726.25,-434 726.25,-470"/>
<text text-anchor="middle" x="678.5" y="-455.62" font-family="Arial" font-size="10.00">📋 Формирование</text>
<text text-anchor="middle" x="678.5" y="-441.38" font-family="Arial" font-size="10.00">промпта для ИИ</text>
</g>
<!-- clean_text&#45;&gt;create_prompt -->
<g id="edge6" class="edge">
<title>clean_text&#45;&gt;create_prompt</title>
<path fill="none" stroke="black" d="M594.21,-451.28C602.03,-451.35 610.62,-451.42 619.21,-451.5"/>
<polygon fill="black" stroke="black" points="618.91,-454.99 628.94,-451.58 618.98,-447.99 618.91,-454.99"/>
</g>
<!-- prompt_template -->
<g id="node8" class="node">
<title>prompt_template</title>
<polygon fill="lightcoral" stroke="black" points="828,-470 763.25,-470 763.25,-434 828,-434 828,-470"/>
<text text-anchor="middle" x="795.62" y="-455.62" font-family="Arial" font-size="10.00">📄 Шаблон</text>
<text text-anchor="middle" x="795.62" y="-441.38" font-family="Arial" font-size="10.00">промпта</text>
</g>
<!-- create_prompt&#45;&gt;prompt_template -->
<g id="edge7" class="edge">
<title>create_prompt&#45;&gt;prompt_template</title>
<path fill="none" stroke="black" d="M726.66,-452C734.84,-452 743.3,-452 751.37,-452"/>
<polygon fill="black" stroke="black" points="751.31,-455.5 761.31,-452 751.31,-448.5 751.31,-455.5"/>
</g>
<!-- giga_chat_request -->
<g id="node9" class="node">
<title>giga_chat_request</title>
<polygon fill="lightcoral" stroke="black" points="941,-478 865,-478 865,-442 941,-442 941,-478"/>
<text text-anchor="middle" x="903" y="-463.62" font-family="Arial" font-size="10.00">🤖 Запрос к</text>
<text text-anchor="middle" x="903" y="-449.38" font-family="Arial" font-size="10.00">GigaChat API</text>
</g>
<!-- prompt_template&#45;&gt;giga_chat_request -->
<g id="edge8" class="edge">
<title>prompt_template&#45;&gt;giga_chat_request</title>
<path fill="none" stroke="black" d="M828.24,-454.4C836.16,-455 844.84,-455.66 853.38,-456.31"/>
<polygon fill="black" stroke="black" points="853.1,-459.8 863.33,-457.06 853.63,-452.82 853.1,-459.8"/>
</g>
<!-- giga_chat_response -->
<g id="node10" class="node">
<title>giga_chat_response</title>
<polygon fill="lightcoral" stroke="black" points="1046.5,-478 978,-478 978,-442 1046.5,-442 1046.5,-478"/>
<text text-anchor="middle" x="1012.25" y="-463.62" font-family="Arial" font-size="10.00">📤 Ответ от</text>
<text text-anchor="middle" x="1012.25" y="-449.38" font-family="Arial" font-size="10.00">GigaChat</text>
</g>
<!-- giga_chat_request&#45;&gt;giga_chat_response -->
<g id="edge9" class="edge">
<title>giga_chat_request&#45;&gt;giga_chat_response</title>
<path fill="none" stroke="black" d="M941.21,-453.54C949.27,-453.25 957.88,-453.18 966.2,-453.33"/>
<polygon fill="black" stroke="black" points="966.08,-456.83 976.18,-453.64 966.3,-449.83 966.08,-456.83"/>
</g>
<!-- giga_chat_request&#45;&gt;giga_chat_response -->
<g id="edge31" class="edge">
<title>giga_chat_request&#45;&gt;giga_chat_response</title>
<path fill="none" stroke="blue" stroke-width="2" d="M941.21,-466.46C948.81,-466.74 956.89,-466.82 964.76,-466.7"/>
<polygon fill="blue" stroke="blue" stroke-width="2" points="964.78,-470.2 974.67,-466.4 964.57,-463.2 964.78,-470.2"/>
</g>
<!-- parse_response -->
<g id="node11" class="node">
<title>parse_response</title>
<polygon fill="lightyellow" stroke="black" points="1199.75,-478 1133.5,-478 1133.5,-442 1199.75,-442 1199.75,-478"/>
<text text-anchor="middle" x="1166.62" y="-463.62" font-family="Arial" font-size="10.00">🔍 Парсинг</text>
<text text-anchor="middle" x="1166.62" y="-449.38" font-family="Arial" font-size="10.00">ответа</text>
</g>
<!-- giga_chat_response&#45;&gt;parse_response -->
<g id="edge10" class="edge">
<title>giga_chat_response&#45;&gt;parse_response</title>
<path fill="none" stroke="black" d="M1046.69,-460C1068.75,-460 1097.88,-460 1121.78,-460"/>
<polygon fill="black" stroke="black" points="1121.53,-463.5 1131.53,-460 1121.53,-456.5 1121.53,-463.5"/>
</g>
<!-- extract_score -->
<g id="node12" class="node">
<title>extract_score</title>
<polygon fill="lightyellow" stroke="black" points="1420.12,-481 1336.62,-481 1336.62,-445 1420.12,-445 1420.12,-481"/>
<text text-anchor="middle" x="1378.38" y="-466.62" font-family="Arial" font-size="10.00">📊 Извлечение</text>
<text text-anchor="middle" x="1378.38" y="-452.38" font-family="Arial" font-size="10.00">оценки</text>
</g>
<!-- parse_response&#45;&gt;extract_score -->
<g id="edge11" class="edge">
<title>parse_response&#45;&gt;extract_score</title>
<path fill="none" stroke="black" d="M1199.94,-460.46C1233.23,-460.94 1285.66,-461.69 1324.91,-462.25"/>
<polygon fill="black" stroke="black" points="1324.81,-465.75 1334.86,-462.39 1324.91,-458.75 1324.81,-465.75"/>
</g>
<!-- apply_criteria -->
<g id="node13" class="node">
<title>apply_criteria</title>
<polygon fill="lightyellow" stroke="black" points="1592,-463 1507,-463 1507,-427 1592,-427 1592,-463"/>
<text text-anchor="middle" x="1549.5" y="-448.62" font-family="Arial" font-size="10.00">⚖️ Применение</text>
<text text-anchor="middle" x="1549.5" y="-434.38" font-family="Arial" font-size="10.00">критериев</text>
</g>
<!-- extract_score&#45;&gt;apply_criteria -->
<g id="edge12" class="edge">
<title>extract_score&#45;&gt;apply_criteria</title>
<path fill="none" stroke="black" d="M1420.39,-462.78C1441.04,-462.25 1466.43,-460.96 1489,-458 1491.16,-457.72 1493.36,-457.39 1495.58,-457.04"/>
<polygon fill="black" stroke="black" points="1496,-460.52 1505.23,-455.32 1494.77,-453.63 1496,-460.52"/>
</g>
<!-- check_keywords -->
<g id="node14" class="node">
<title>check_keywords</title>
<polygon fill="lightyellow" stroke="black" points="1716.25,-463 1629,-463 1629,-427 1716.25,-427 1716.25,-463"/>
<text text-anchor="middle" x="1672.62" y="-448.62" font-family="Arial" font-size="10.00">🔑 Проверка</text>
<text text-anchor="middle" x="1672.62" y="-434.38" font-family="Arial" font-size="10.00">ключевых слов</text>
</g>
<!-- apply_criteria&#45;&gt;check_keywords -->
<g id="edge13" class="edge">
<title>apply_criteria&#45;&gt;check_keywords</title>
<path fill="none" stroke="black" d="M1592.18,-445C1600.28,-445 1608.87,-445 1617.3,-445"/>
<polygon fill="black" stroke="black" points="1617.11,-448.5 1627.11,-445 1617.11,-441.5 1617.11,-448.5"/>
</g>
<!-- check_source -->
<g id="node15" class="node">
<title>check_source</title>
<polygon fill="lightyellow" stroke="black" points="1708.75,-409 1636.5,-409 1636.5,-373 1708.75,-373 1708.75,-409"/>
<text text-anchor="middle" x="1672.62" y="-394.62" font-family="Arial" font-size="10.00">📢 Проверка</text>
<text text-anchor="middle" x="1672.62" y="-380.38" font-family="Arial" font-size="10.00">источника</text>
</g>
<!-- apply_criteria&#45;&gt;check_source -->
<g id="edge14" class="edge">
<title>apply_criteria&#45;&gt;check_source</title>
<path fill="none" stroke="black" d="M1591.85,-426.57C1602.75,-421.7 1614.59,-416.43 1625.72,-411.47"/>
<polygon fill="black" stroke="black" points="1627.03,-414.71 1634.74,-407.44 1624.18,-408.32 1627.03,-414.71"/>
</g>
<!-- final_score -->
<g id="node16" class="node">
<title>final_score</title>
<polygon fill="lightgreen" stroke="black" points="1845.75,-444 1753.25,-444 1753.25,-408 1845.75,-408 1845.75,-444"/>
<text text-anchor="middle" x="1799.5" y="-429.62" font-family="Arial" font-size="10.00">⭐ Финальная</text>
<text text-anchor="middle" x="1799.5" y="-415.38" font-family="Arial" font-size="10.00">оценка важности</text>
</g>
<!-- check_keywords&#45;&gt;final_score -->
<g id="edge15" class="edge">
<title>check_keywords&#45;&gt;final_score</title>
<path fill="none" stroke="black" d="M1716.6,-438.46C1724.65,-437.24 1733.18,-435.94 1741.58,-434.66"/>
<polygon fill="black" stroke="black" points="1742.03,-438.13 1751.39,-433.17 1740.98,-431.21 1742.03,-438.13"/>
</g>
<!-- check_source&#45;&gt;final_score -->
<g id="edge16" class="edge">
<title>check_source&#45;&gt;final_score</title>
<path fill="none" stroke="black" d="M1709.08,-400.94C1719.35,-403.82 1730.83,-407.03 1742.05,-410.18"/>
<polygon fill="black" stroke="black" points="1741.1,-413.55 1751.68,-412.88 1742.99,-406.81 1741.1,-413.55"/>
</g>
<!-- decision -->
<g id="node17" class="node">
<title>decision</title>
<polygon fill="yellow" stroke="black" points="1960.25,-460.25 1882.75,-426 1960.25,-391.75 2037.75,-426 1960.25,-460.25"/>
<text text-anchor="middle" x="1960.25" y="-429.62" font-family="Arial" font-size="10.00">🎯 Решение о</text>
<text text-anchor="middle" x="1960.25" y="-415.38" font-family="Arial" font-size="10.00">публикации</text>
</g>
<!-- final_score&#45;&gt;decision -->
<g id="edge17" class="edge">
<title>final_score&#45;&gt;decision</title>
<path fill="none" stroke="black" d="M1845.99,-419.83C1858.3,-419.38 1871.95,-419.19 1885.39,-419.26"/>
<polygon fill="black" stroke="black" points="1885.05,-422.76 1895.08,-419.37 1885.12,-415.76 1885.05,-422.76"/>
</g>
<!-- final_score&#45;&gt;decision -->
<g id="edge32" class="edge">
<title>final_score&#45;&gt;decision</title>
<path fill="none" stroke="blue" stroke-width="2" d="M1845.99,-432.17C1857.81,-432.6 1870.86,-432.79 1883.78,-432.74"/>
<polygon fill="blue" stroke="blue" stroke-width="2" points="1883.61,-436.24 1893.57,-432.65 1883.54,-429.25 1883.61,-436.24"/>
</g>
<!-- important -->
<g id="node27" class="node">
<title>important</title>
<polygon fill="lightgreen" stroke="black" points="2186.12,-473 2122.88,-473 2122.88,-437 2186.12,-437 2186.12,-473"/>
<text text-anchor="middle" x="2154.5" y="-458.62" font-family="Arial" font-size="10.00">✅ Важное</text>
<text text-anchor="middle" x="2154.5" y="-444.38" font-family="Arial" font-size="10.00">(≥ 0.7)</text>
</g>
<!-- decision&#45;&gt;important -->
<g id="edge26" class="edge">
<title>decision&#45;&gt;important</title>
<path fill="none" stroke="black" d="M2019.19,-434.74C2048.89,-439.22 2084.4,-444.58 2111.44,-448.66"/>
<polygon fill="black" stroke="black" points="2110.57,-452.06 2120.98,-450.09 2111.61,-445.14 2110.57,-452.06"/>
<text text-anchor="middle" x="2077.5" y="-448.38" font-family="Arial" font-size="9.00">Важное</text>
</g>
<!-- not_important -->
<g id="node28" class="node">
<title>not_important</title>
<polygon fill="lightcoral" stroke="black" points="2191.75,-419 2117.25,-419 2117.25,-383 2191.75,-383 2191.75,-419"/>
<text text-anchor="middle" x="2154.5" y="-404.62" font-family="Arial" font-size="10.00">❌ Неважное</text>
<text text-anchor="middle" x="2154.5" y="-390.38" font-family="Arial" font-size="10.00">(&lt; 0.7)</text>
</g>
<!-- decision&#45;&gt;not_important -->
<g id="edge27" class="edge">
<title>decision&#45;&gt;not_important</title>
<path fill="none" stroke="black" d="M2019.44,-417.46C2031.44,-415.76 2044,-414.03 2055.75,-412.5 2071.98,-410.39 2089.74,-408.25 2105.62,-406.39"/>
<polygon fill="black" stroke="black" points="2105.77,-409.9 2115.3,-405.27 2104.96,-402.95 2105.77,-409.9"/>
<text text-anchor="middle" x="2077.5" y="-414.45" font-family="Arial" font-size="9.00">Неважное</text>
</g>
<!-- keywords_boost -->
<g id="node18" class="node">
<title>keywords_boost</title>
<polygon fill="lightyellow" stroke="black" points="1436.62,-214 1320.12,-214 1320.12,-178 1436.62,-178 1436.62,-214"/>
<text text-anchor="middle" x="1378.38" y="-199.62" font-family="Arial" font-size="10.00">📈 Ключевые слова</text>
<text text-anchor="middle" x="1378.38" y="-185.38" font-family="Arial" font-size="10.00">(повышают важность)</text>
</g>
<!-- keywords_boost&#45;&gt;check_keywords -->
<g id="edge18" class="edge">
<title>keywords_boost&#45;&gt;check_keywords</title>
<path fill="none" stroke="black" d="M1436.92,-191.12C1452.46,-194.6 1467.78,-201.61 1478,-214 1496.72,-236.7 1471.5,-321.64 1488,-346 1504.55,-370.44 1577.09,-401.11 1625.89,-422.06"/>
<polygon fill="black" stroke="black" points="1624.25,-425.17 1634.82,-425.91 1627.02,-418.74 1624.25,-425.17"/>
</g>
<!-- keywords_boost&#45;&gt;check_keywords -->
<g id="edge35" class="edge">
<title>keywords_boost&#45;&gt;check_keywords</title>
<path fill="none" stroke="orange" d="M1436.92,-208.32C1452.46,-212.6 1467.78,-219.61 1478,-232 1496.72,-254.7 1471.5,-339.64 1488,-364 1503.69,-387.16 1569.64,-415.91 1618.03,-432.49"/>
<polygon fill="orange" stroke="orange" points="1616.65,-435.72 1627.24,-435.56 1618.86,-429.08 1616.65,-435.72"/>
</g>
<!-- keywords_reduce -->
<g id="node19" class="node">
<title>keywords_reduce</title>
<polygon fill="lightyellow" stroke="black" points="1432.12,-160 1324.62,-160 1324.62,-124 1432.12,-124 1432.12,-160"/>
<text text-anchor="middle" x="1378.38" y="-145.62" font-family="Arial" font-size="10.00">📉 Ключевые слова</text>
<text text-anchor="middle" x="1378.38" y="-131.38" font-family="Arial" font-size="10.00">(снижают важность)</text>
</g>
<!-- keywords_reduce&#45;&gt;check_keywords -->
<g id="edge19" class="edge">
<title>keywords_reduce&#45;&gt;check_keywords</title>
<path fill="none" stroke="black" d="M1432.53,-136.24C1449.53,-139.34 1466.81,-146.45 1478,-160 1496.45,-182.34 1473.41,-264.97 1488,-290 1516.05,-338.14 1551.55,-321.69 1592,-360 1611.81,-378.77 1608.93,-390.51 1629,-409 1633.32,-412.98 1638.3,-416.72 1643.3,-420.25"/>
<polygon fill="black" stroke="black" points="1641.29,-423.12 1651.52,-425.9 1645.26,-417.35 1641.29,-423.12"/>
</g>
<!-- keywords_reduce&#45;&gt;check_keywords -->
<g id="edge36" class="edge">
<title>keywords_reduce&#45;&gt;check_keywords</title>
<path fill="none" stroke="orange" d="M1432.53,-153.2C1449.53,-157.34 1466.81,-164.45 1478,-178 1496.45,-200.34 1473.41,-282.97 1488,-308 1516.05,-356.14 1551.55,-339.69 1592,-378 1608.59,-393.71 1609.27,-404.5 1620.82,-418.45"/>
<polygon fill="orange" stroke="orange" points="1618.07,-420.63 1627.49,-425.47 1623.15,-415.81 1618.07,-420.63"/>
</g>
<!-- source_boost -->
<g id="node20" class="node">
<title>source_boost</title>
<polygon fill="lightyellow" stroke="black" points="1436.62,-106 1320.12,-106 1320.12,-70 1436.62,-70 1436.62,-106"/>
<text text-anchor="middle" x="1378.38" y="-91.62" font-family="Arial" font-size="10.00">📢 Источники</text>
<text text-anchor="middle" x="1378.38" y="-77.38" font-family="Arial" font-size="10.00">(повышают важность)</text>
</g>
<!-- source_boost&#45;&gt;check_source -->
<g id="edge20" class="edge">
<title>source_boost&#45;&gt;check_source</title>
<path fill="none" stroke="black" d="M1436.9,-83.13C1452.44,-86.62 1467.76,-93.62 1478,-106 1496.18,-127.99 1474.1,-209.08 1488,-234 1515.89,-284 1547.6,-273.86 1592,-310 1613.05,-327.13 1635.92,-348.07 1651.72,-364.6"/>
<polygon fill="black" stroke="black" points="1648.91,-366.71 1658.27,-371.68 1654.05,-361.96 1648.91,-366.71"/>
</g>
<!-- source_boost&#45;&gt;check_source -->
<g id="edge37" class="edge">
<title>source_boost&#45;&gt;check_source</title>
<path fill="none" stroke="orange" d="M1436.9,-100.34C1452.44,-104.62 1467.76,-111.62 1478,-124 1496.18,-145.99 1474.1,-227.08 1488,-252 1515.89,-302 1547.6,-291.86 1592,-328 1606.59,-339.87 1622.04,-353.57 1635.42,-365.26"/>
<polygon fill="orange" stroke="orange" points="1632.89,-367.7 1642.74,-371.62 1637.48,-362.42 1632.89,-367.7"/>
</g>
<!-- source_reduce -->
<g id="node21" class="node">
<title>source_reduce</title>
<polygon fill="lightyellow" stroke="black" points="1432.12,-52 1324.62,-52 1324.62,-16 1432.12,-16 1432.12,-52"/>
<text text-anchor="middle" x="1378.38" y="-37.62" font-family="Arial" font-size="10.00">📢 Источники</text>
<text text-anchor="middle" x="1378.38" y="-23.38" font-family="Arial" font-size="10.00">(снижают важность)</text>
</g>
<!-- source_reduce&#45;&gt;check_source -->
<g id="edge21" class="edge">
<title>source_reduce&#45;&gt;check_source</title>
<path fill="none" stroke="black" d="M1432.47,-32.12C1448.29,-35.65 1464.89,-41.96 1478,-52 1585.7,-134.5 1644.79,-295.4 1664.29,-361.67"/>
<polygon fill="black" stroke="black" points="1660.86,-362.42 1666.96,-371.09 1667.6,-360.51 1660.86,-362.42"/>
</g>
<!-- source_reduce&#45;&gt;check_source -->
<g id="edge38" class="edge">
<title>source_reduce&#45;&gt;check_source</title>
<path fill="none" stroke="orange" d="M1432.47,-49.26C1448.29,-53.65 1464.89,-59.96 1478,-70 1580.76,-148.72 1639.27,-298.81 1661.35,-362.03"/>
<polygon fill="orange" stroke="orange" points="1658,-363.04 1664.56,-371.36 1664.62,-360.76 1658,-363.04"/>
</g>
<!-- time_sensitivity -->
<g id="node22" class="node">
<title>time_sensitivity</title>
<polygon fill="lightyellow" stroke="black" points="1427.62,-322 1329.12,-322 1329.12,-286 1427.62,-286 1427.62,-322"/>
<text text-anchor="middle" x="1378.38" y="-307.62" font-family="Arial" font-size="10.00">⏰ Временная</text>
<text text-anchor="middle" x="1378.38" y="-293.38" font-family="Arial" font-size="10.00">чувствительность</text>
</g>
<!-- time_sensitivity&#45;&gt;apply_criteria -->
<g id="edge22" class="edge">
<title>time_sensitivity&#45;&gt;apply_criteria</title>
<path fill="none" stroke="black" d="M1427.94,-321.23C1446.48,-330.25 1466.02,-343.2 1478,-361 1496.04,-387.8 1465.83,-409.5 1488,-433 1490.42,-435.56 1493.22,-437.67 1496.26,-439.39"/>
<polygon fill="black" stroke="black" points="1494.65,-442.51 1505.23,-443.08 1497.31,-436.04 1494.65,-442.51"/>
</g>
<!-- message_length -->
<g id="node23" class="node">
<title>message_length</title>
<polygon fill="lightyellow" stroke="black" points="1411.88,-268 1344.88,-268 1344.88,-232 1411.88,-232 1411.88,-268"/>
<text text-anchor="middle" x="1378.38" y="-253.62" font-family="Arial" font-size="10.00">📏 Длина</text>
<text text-anchor="middle" x="1378.38" y="-239.38" font-family="Arial" font-size="10.00">сообщения</text>
</g>
<!-- message_length&#45;&gt;apply_criteria -->
<g id="edge23" class="edge">
<title>message_length&#45;&gt;apply_criteria</title>
<path fill="none" stroke="black" d="M1412.03,-249.8C1434.17,-251.55 1462.18,-257.83 1478,-277 1496.58,-299.52 1472.76,-383.1 1488,-408 1490.64,-412.31 1493.98,-416.19 1497.75,-419.67"/>
<polygon fill="black" stroke="black" points="1495.33,-422.22 1505.34,-425.7 1499.69,-416.74 1495.33,-422.22"/>
</g>
<!-- prompt_example -->
<g id="node24" class="node">
<title>prompt_example</title>
<polygon fill="lightcoral" stroke="black" points="233,-708 16,-708 16,-568 233,-568 233,-708"/>
<text text-anchor="middle" x="124.5" y="-694.5" font-family="Arial" font-size="10.00">Оцените важность сообщения от 0.0 до 1.0:</text>
<text text-anchor="middle" x="124.5" y="-670.5" font-family="Arial" font-size="10.00">Сообщение: {текст}</text>
<text text-anchor="middle" x="124.5" y="-658.5" font-family="Arial" font-size="10.00">Источник: {источник}</text>
<text text-anchor="middle" x="124.5" y="-646.5" font-family="Arial" font-size="10.00">Время: {время}</text>
<text text-anchor="middle" x="124.5" y="-622.5" font-family="Arial" font-size="10.00">Учитывайте:</text>
<text text-anchor="middle" x="124.5" y="-610.5" font-family="Arial" font-size="10.00">&#45; Деловую значимость</text>
<text text-anchor="middle" x="124.5" y="-598.5" font-family="Arial" font-size="10.00">&#45; Срочность</text>
<text text-anchor="middle" x="124.5" y="-586.5" font-family="Arial" font-size="10.00">&#45; Влияние на работу</text>
<text text-anchor="middle" x="124.5" y="-574.5" font-family="Arial" font-size="10.00">&#45; Контекст компании</text>
</g>
<!-- boost_examples -->
<g id="node25" class="node">
<title>boost_examples</title>
<polygon fill="lightyellow" stroke="black" points="1235.38,-233.12 1097.88,-233.12 1097.88,-174.88 1235.38,-174.88 1235.38,-233.12"/>
<text text-anchor="middle" x="1166.62" y="-219.62" font-family="Arial" font-size="10.00">📈 Повышают важность:</text>
<text text-anchor="middle" x="1166.62" y="-205.38" font-family="Arial" font-size="10.00">• срочно, важно, встреча</text>
<text text-anchor="middle" x="1166.62" y="-193.38" font-family="Arial" font-size="10.00">• дедлайн, отчет, проект</text>
<text text-anchor="middle" x="1166.62" y="-181.38" font-family="Arial" font-size="10.00">• уведомление, изменение</text>
</g>
<!-- boost_examples&#45;&gt;keywords_boost -->
<g id="edge24" class="edge">
<title>boost_examples&#45;&gt;keywords_boost</title>
<path fill="none" stroke="black" d="M1235.72,-201.4C1259.06,-200.51 1285.18,-199.52 1308.57,-198.62"/>
<polygon fill="black" stroke="black" points="1308.44,-202.13 1318.29,-198.25 1308.17,-195.14 1308.44,-202.13"/>
</g>
<!-- reduce_examples -->
<g id="node26" class="node">
<title>reduce_examples</title>
<polygon fill="lightyellow" stroke="black" points="1231.25,-157.12 1102,-157.12 1102,-98.88 1231.25,-98.88 1231.25,-157.12"/>
<text text-anchor="middle" x="1166.62" y="-143.62" font-family="Arial" font-size="10.00">📉 Снижают важность:</text>
<text text-anchor="middle" x="1166.62" y="-129.38" font-family="Arial" font-size="10.00">• реклама, спам, тест</text>
<text text-anchor="middle" x="1166.62" y="-117.38" font-family="Arial" font-size="10.00">• развлекательное</text>
<text text-anchor="middle" x="1166.62" y="-105.38" font-family="Arial" font-size="10.00">• личное, неформальное</text>
</g>
<!-- reduce_examples&#45;&gt;keywords_reduce -->
<g id="edge25" class="edge">
<title>reduce_examples&#45;&gt;keywords_reduce</title>
<path fill="none" stroke="black" d="M1231.7,-132.28C1257.51,-134 1287.24,-135.98 1313.08,-137.71"/>
<polygon fill="black" stroke="black" points="1312.55,-141.18 1322.76,-138.35 1313.01,-134.2 1312.55,-141.18"/>
</g>
<!-- publish -->
<g id="node29" class="node">
<title>publish</title>
<polygon fill="lightgreen" stroke="black" points="2319.75,-473 2235.5,-473 2235.5,-437 2319.75,-437 2319.75,-473"/>
<text text-anchor="middle" x="2277.62" y="-458.62" font-family="Arial" font-size="10.00">📢 Публикация</text>
<text text-anchor="middle" x="2277.62" y="-444.38" font-family="Arial" font-size="10.00">в канале</text>
</g>
<!-- important&#45;&gt;publish -->
<g id="edge28" class="edge">
<title>important&#45;&gt;publish</title>
<path fill="none" stroke="black" d="M2186.38,-449.03C2197.87,-448.37 2211.26,-448.13 2224.15,-448.3"/>
<polygon fill="black" stroke="black" points="2223.7,-451.79 2233.77,-448.53 2223.86,-444.8 2223.7,-451.79"/>
</g>
<!-- important&#45;&gt;publish -->
<g id="edge33" class="edge">
<title>important&#45;&gt;publish</title>
<path fill="none" stroke="green" d="M2186.38,-460.97C2197.87,-461.63 2211.26,-461.87 2224.15,-461.7"/>
<polygon fill="green" stroke="green" points="2223.86,-465.2 2233.77,-461.47 2223.7,-458.21 2223.86,-465.2"/>
</g>
<!-- ignore -->
<g id="node30" class="node">
<title>ignore</title>
<polygon fill="lightcoral" stroke="black" points="2326.5,-419 2228.75,-419 2228.75,-383 2326.5,-383 2326.5,-419"/>
<text text-anchor="middle" x="2277.62" y="-398.62" font-family="Arial" font-size="10.00">🚫 Игнорирование</text>
</g>
<!-- not_important&#45;&gt;ignore -->
<g id="edge29" class="edge">
<title>not_important&#45;&gt;ignore</title>
<path fill="none" stroke="black" d="M2192.17,-394.74C2200.02,-394.4 2208.51,-394.24 2216.97,-394.25"/>
<polygon fill="black" stroke="black" points="2216.89,-397.75 2226.93,-394.36 2216.97,-390.75 2216.89,-397.75"/>
</g>
<!-- not_important&#45;&gt;ignore -->
<g id="edge34" class="edge">
<title>not_important&#45;&gt;ignore</title>
<path fill="none" stroke="red" d="M2192.17,-407.26C2200.02,-407.6 2208.51,-407.76 2216.97,-407.75"/>
<polygon fill="red" stroke="red" points="2216.97,-411.25 2226.93,-407.64 2216.89,-404.25 2216.97,-411.25"/>
</g>
</g>
</svg>
