<?xml version="1.0" encoding="UTF-8" standalone="no"?>
<!DOCTYPE svg PUBLIC "-//W3C//DTD SVG 1.1//EN"
 "http://www.w3.org/Graphics/SVG/1.1/DTD/svg11.dtd">
<!-- Generated by graphviz version 12.2.1 (20241206.2353)
 -->
<!-- Title: BotAlgorithm Pages: 1 -->
<svg width="1298pt" height="1870pt"
 viewBox="0.00 0.00 1298.00 1870.50" xmlns="http://www.w3.org/2000/svg" xmlns:xlink="http://www.w3.org/1999/xlink">
<g id="graph0" class="graph" transform="scale(1 1) rotate(0) translate(4 1866.5)">
<title>BotAlgorithm</title>
<polygon fill="white" stroke="none" points="-4,4 -4,-1866.5 1294,-1866.5 1294,4 -4,4"/>
<g id="clust1" class="cluster">
<title>cluster_legend</title>
<polygon fill="lightgrey" stroke="lightgrey" points="8,-1778 8,-1854.5 605,-1854.5 605,-1778 8,-1778"/>
<text text-anchor="middle" x="306.5" y="-1837.2" font-family="Times,serif" font-size="14.00">Легенда</text>
</g>
<g id="clust2" class="cluster">
<title>cluster_system</title>
<polygon fill="lightblue" stroke="lightblue" points="613,-1195.22 613,-1854.5 1075,-1854.5 1075,-1195.22 613,-1195.22"/>
<text text-anchor="middle" x="844" y="-1837.2" font-family="Times,serif" font-size="14.00">Система мониторинга важных сообщений</text>
</g>
<g id="clust3" class="cluster">
<title>cluster_monitoring</title>
<polygon fill="lightgreen" stroke="lightgreen" points="750,-431.22 750,-1156.22 1048,-1156.22 1048,-431.22 750,-431.22"/>
<text text-anchor="middle" x="899" y="-1138.92" font-family="Times,serif" font-size="14.00">Мониторинг сообщений</text>
</g>
<g id="clust4" class="cluster">
<title>cluster_moderation</title>
<polygon fill="lightyellow" stroke="lightyellow" points="599,-8 599,-402.72 915,-402.72 915,-8 599,-8"/>
<text text-anchor="middle" x="757" y="-385.42" font-family="Times,serif" font-size="14.00">Модерация и публикация</text>
</g>
<g id="clust5" class="cluster">
<title>cluster_userbot</title>
<polygon fill="lightpink" stroke="lightpink" points="1083,-1079.72 1083,-1443.47 1282,-1443.47 1282,-1079.72 1083,-1079.72"/>
<text text-anchor="middle" x="1182.5" y="-1426.17" font-family="Times,serif" font-size="14.00">Userbot (скрытый мониторинг)</text>
</g>
<!-- start -->
<g id="node1" class="node">
<title>start</title>
<ellipse fill="lightblue" stroke="black" cx="65" cy="-1804" rx="48.86" ry="18"/>
<text text-anchor="middle" x="65" y="-1800.5" font-family="Arial" font-size="10.00">Начало/Конец</text>
</g>
<!-- process -->
<g id="node2" class="node">
<title>process</title>
<polygon fill="lightgreen" stroke="black" points="186.5,-1822 131.5,-1822 131.5,-1786 186.5,-1786 186.5,-1822"/>
<text text-anchor="middle" x="159" y="-1800.5" font-family="Arial" font-size="10.00">Процесс</text>
</g>
<!-- decision -->
<g id="node3" class="node">
<title>decision</title>
<polygon fill="yellow" stroke="black" points="253,-1822 204.95,-1804 253,-1786 301.05,-1804 253,-1822"/>
<text text-anchor="middle" x="253" y="-1800.5" font-family="Arial" font-size="10.00">Решение</text>
</g>
<!-- storage -->
<g id="node4" class="node">
<title>storage</title>
<path fill="orange" stroke="black" d="M387.25,-1818.73C387.25,-1820.53 371.9,-1822 353,-1822 334.1,-1822 318.75,-1820.53 318.75,-1818.73 318.75,-1818.73 318.75,-1789.27 318.75,-1789.27 318.75,-1787.47 334.1,-1786 353,-1786 371.9,-1786 387.25,-1787.47 387.25,-1789.27 387.25,-1789.27 387.25,-1818.73 387.25,-1818.73"/>
<path fill="none" stroke="black" d="M387.25,-1818.73C387.25,-1816.92 371.9,-1815.45 353,-1815.45 334.1,-1815.45 318.75,-1816.92 318.75,-1818.73"/>
<text text-anchor="middle" x="353" y="-1800.5" font-family="Arial" font-size="10.00">Хранилище</text>
</g>
<!-- external -->
<g id="node5" class="node">
<title>external</title>
<polygon fill="lightcoral" stroke="black" points="496.88,-1822 405.12,-1822 405.12,-1786 496.88,-1786 496.88,-1822"/>
<text text-anchor="middle" x="451" y="-1800.5" font-family="Arial" font-size="10.00">Внешний сервис</text>
</g>
<!-- user -->
<g id="node6" class="node">
<title>user</title>
<polygon fill="lightpink" stroke="black" points="596.62,-1822 515.38,-1822 515.38,-1786 596.62,-1786 596.62,-1822"/>
<text text-anchor="middle" x="556" y="-1800.5" font-family="Arial" font-size="10.00">Пользователь</text>
</g>
<!-- start_bot -->
<g id="node7" class="node">
<title>start_bot</title>
<ellipse fill="lightblue" stroke="black" cx="837" cy="-1804" rx="53.58" ry="18"/>
<text text-anchor="middle" x="837" y="-1801.62" font-family="Arial" font-size="10.00">🚀 Запуск бота</text>
</g>
<!-- init_storage -->
<g id="node9" class="node">
<title>init_storage</title>
<polygon fill="lightgreen" stroke="black" points="889.25,-1749 784.75,-1749 784.75,-1713 889.25,-1713 889.25,-1749"/>
<text text-anchor="middle" x="837" y="-1734.62" font-family="Arial" font-size="10.00">📁 Инициализация</text>
<text text-anchor="middle" x="837" y="-1720.37" font-family="Arial" font-size="10.00">хранилища данных</text>
</g>
<!-- start_bot&#45;&gt;init_storage -->
<g id="edge1" class="edge">
<title>start_bot&#45;&gt;init_storage</title>
<path fill="none" stroke="black" d="M831.12,-1785.81C830.32,-1778.14 830.07,-1768.89 830.38,-1760.24"/>
<polygon fill="black" stroke="black" points="833.85,-1760.75 831.04,-1750.54 826.87,-1760.28 833.85,-1760.75"/>
</g>
<!-- start_bot&#45;&gt;init_storage -->
<g id="edge40" class="edge">
<title>start_bot&#45;&gt;init_storage</title>
<path fill="none" stroke="blue" stroke-width="2" d="M842.88,-1785.81C843.63,-1778.66 843.89,-1770.14 843.68,-1762.02"/>
<polygon fill="blue" stroke="blue" stroke-width="2" points="847.17,-1761.81 843.05,-1752.05 840.19,-1762.25 847.17,-1761.81"/>
</g>
<!-- user_start -->
<g id="node8" class="node">
<title>user_start</title>
<ellipse fill="lightblue" stroke="black" cx="747" cy="-1494.69" rx="66.47" ry="24.22"/>
<text text-anchor="middle" x="747" y="-1498.31" font-family="Arial" font-size="10.00">👤 Пользователь</text>
<text text-anchor="middle" x="747" y="-1484.06" font-family="Arial" font-size="10.00">начинает работу</text>
</g>
<!-- check_user_type -->
<g id="node15" class="node">
<title>check_user_type</title>
<polygon fill="yellow" stroke="black" points="747,-1427.22 644.75,-1392.97 747,-1358.72 849.25,-1392.97 747,-1427.22"/>
<text text-anchor="middle" x="747" y="-1396.59" font-family="Arial" font-size="10.00">🔍 Определение</text>
<text text-anchor="middle" x="747" y="-1382.34" font-family="Arial" font-size="10.00">типа пользователя</text>
</g>
<!-- user_start&#45;&gt;check_user_type -->
<g id="edge5" class="edge">
<title>user_start&#45;&gt;check_user_type</title>
<path fill="none" stroke="black" d="M741.18,-1470.31C740.4,-1460.29 740.11,-1448.27 740.31,-1436.75"/>
<polygon fill="black" stroke="black" points="743.8,-1437.13 740.62,-1427.02 736.8,-1436.9 743.8,-1437.13"/>
</g>
<!-- user_start&#45;&gt;check_user_type -->
<g id="edge41" class="edge">
<title>user_start&#45;&gt;check_user_type</title>
<path fill="none" stroke="blue" stroke-width="2" d="M752.82,-1470.31C753.57,-1460.71 753.86,-1449.26 753.71,-1438.2"/>
<polygon fill="blue" stroke="blue" stroke-width="2" points="757.22,-1438.42 753.42,-1428.53 750.22,-1438.63 757.22,-1438.42"/>
</g>
<!-- load_config -->
<g id="node10" class="node">
<title>load_config</title>
<polygon fill="lightgreen" stroke="black" points="701.25,-1670.45 620.75,-1670.45 620.75,-1634.45 701.25,-1634.45 701.25,-1670.45"/>
<text text-anchor="middle" x="661" y="-1656.08" font-family="Arial" font-size="10.00">⚙️ Загрузка</text>
<text text-anchor="middle" x="661" y="-1641.83" font-family="Arial" font-size="10.00">конфигурации</text>
</g>
<!-- init_storage&#45;&gt;load_config -->
<g id="edge2" class="edge">
<title>init_storage&#45;&gt;load_config</title>
<path fill="none" stroke="black" d="M795.11,-1712.55C770.29,-1702.12 738.26,-1688.51 710,-1676 709.65,-1675.85 709.31,-1675.69 708.96,-1675.54"/>
<polygon fill="black" stroke="black" points="710.61,-1672.44 700.05,-1671.54 707.74,-1678.83 710.61,-1672.44"/>
</g>
<!-- user_prefs -->
<g id="node12" class="node">
<title>user_prefs</title>
<path fill="orange" stroke="black" d="M833.12,-1671.72C833.12,-1674.08 807.52,-1676 776,-1676 744.48,-1676 718.88,-1674.08 718.88,-1671.72 718.88,-1671.72 718.88,-1633.19 718.88,-1633.19 718.88,-1630.82 744.48,-1628.91 776,-1628.91 807.52,-1628.91 833.12,-1630.82 833.12,-1633.19 833.12,-1633.19 833.12,-1671.72 833.12,-1671.72"/>
<path fill="none" stroke="black" d="M833.12,-1671.72C833.12,-1669.36 807.52,-1667.44 776,-1667.44 744.48,-1667.44 718.88,-1669.36 718.88,-1671.72"/>
<text text-anchor="middle" x="776" y="-1656.08" font-family="Arial" font-size="10.00">👥 Пользовательские</text>
<text text-anchor="middle" x="776" y="-1641.83" font-family="Arial" font-size="10.00">настройки</text>
</g>
<!-- init_storage&#45;&gt;user_prefs -->
<g id="edge34" class="edge">
<title>init_storage&#45;&gt;user_prefs</title>
<path fill="none" stroke="black" d="M823.16,-1712.63C816.66,-1704.47 808.7,-1694.49 801.19,-1685.06"/>
<polygon fill="black" stroke="black" points="804.1,-1683.1 795.13,-1677.46 798.62,-1687.46 804.1,-1683.1"/>
</g>
<!-- bot_config -->
<g id="node13" class="node">
<title>bot_config</title>
<path fill="orange" stroke="black" d="M946.38,-1671.72C946.38,-1674.08 925.14,-1676 899,-1676 872.86,-1676 851.62,-1674.08 851.62,-1671.72 851.62,-1671.72 851.62,-1633.19 851.62,-1633.19 851.62,-1630.82 872.86,-1628.91 899,-1628.91 925.14,-1628.91 946.38,-1630.82 946.38,-1633.19 946.38,-1633.19 946.38,-1671.72 946.38,-1671.72"/>
<path fill="none" stroke="black" d="M946.38,-1671.72C946.38,-1669.36 925.14,-1667.44 899,-1667.44 872.86,-1667.44 851.62,-1669.36 851.62,-1671.72"/>
<text text-anchor="middle" x="899" y="-1656.08" font-family="Arial" font-size="10.00">🤖 Конфигурация</text>
<text text-anchor="middle" x="899" y="-1641.83" font-family="Arial" font-size="10.00">бота</text>
</g>
<!-- init_storage&#45;&gt;bot_config -->
<g id="edge35" class="edge">
<title>init_storage&#45;&gt;bot_config</title>
<path fill="none" stroke="black" d="M851.07,-1712.63C857.68,-1704.47 865.76,-1694.49 873.4,-1685.06"/>
<polygon fill="black" stroke="black" points="875.99,-1687.42 879.56,-1677.45 870.55,-1683.02 875.99,-1687.42"/>
</g>
<!-- pending_posts -->
<g id="node14" class="node">
<title>pending_posts</title>
<path fill="orange" stroke="black" d="M1067.12,-1671.72C1067.12,-1674.08 1044.21,-1676 1016,-1676 987.79,-1676 964.88,-1674.08 964.88,-1671.72 964.88,-1671.72 964.88,-1633.19 964.88,-1633.19 964.88,-1630.82 987.79,-1628.91 1016,-1628.91 1044.21,-1628.91 1067.12,-1630.82 1067.12,-1633.19 1067.12,-1633.19 1067.12,-1671.72 1067.12,-1671.72"/>
<path fill="none" stroke="black" d="M1067.12,-1671.72C1067.12,-1669.36 1044.21,-1667.44 1016,-1667.44 987.79,-1667.44 964.88,-1669.36 964.88,-1671.72"/>
<text text-anchor="middle" x="1016" y="-1656.08" font-family="Arial" font-size="10.00">📝 Очередь постов</text>
<text text-anchor="middle" x="1016" y="-1641.83" font-family="Arial" font-size="10.00">на модерацию</text>
</g>
<!-- init_storage&#45;&gt;pending_posts -->
<g id="edge36" class="edge">
<title>init_storage&#45;&gt;pending_posts</title>
<path fill="none" stroke="black" d="M877.62,-1712.63C900.83,-1702.7 930.36,-1690.07 956.18,-1679.03"/>
<polygon fill="black" stroke="black" points="957.4,-1682.32 965.22,-1675.17 954.65,-1675.88 957.4,-1682.32"/>
</g>
<!-- setup_handlers -->
<g id="node11" class="node">
<title>setup_handlers</title>
<polygon fill="lightgreen" stroke="black" points="745.5,-1591.91 666.5,-1591.91 666.5,-1555.91 745.5,-1555.91 745.5,-1591.91"/>
<text text-anchor="middle" x="706" y="-1577.53" font-family="Arial" font-size="10.00">🔧 Настройка</text>
<text text-anchor="middle" x="706" y="-1563.28" font-family="Arial" font-size="10.00">обработчиков</text>
</g>
<!-- load_config&#45;&gt;setup_handlers -->
<g id="edge3" class="edge">
<title>load_config&#45;&gt;setup_handlers</title>
<path fill="none" stroke="black" d="M671.21,-1634.08C676.79,-1624.59 683.83,-1612.62 690.11,-1601.94"/>
<polygon fill="black" stroke="black" points="693.01,-1603.91 695.06,-1593.51 686.98,-1600.36 693.01,-1603.91"/>
</g>
<!-- setup_handlers&#45;&gt;user_start -->
<g id="edge4" class="edge">
<title>setup_handlers&#45;&gt;user_start</title>
<path fill="none" stroke="black" d="M715.1,-1555.77C719.28,-1547.89 724.39,-1538.27 729.29,-1529.05"/>
<polygon fill="black" stroke="black" points="732.35,-1530.74 733.95,-1520.26 726.17,-1527.45 732.35,-1530.74"/>
</g>
<!-- admin_menu -->
<g id="node16" class="node">
<title>admin_menu</title>
<polygon fill="lightgreen" stroke="black" points="895.12,-1312.22 804.88,-1312.22 804.88,-1276.22 895.12,-1276.22 895.12,-1312.22"/>
<text text-anchor="middle" x="850" y="-1297.84" font-family="Arial" font-size="10.00">👑 Меню</text>
<text text-anchor="middle" x="850" y="-1283.59" font-family="Arial" font-size="10.00">администратора</text>
</g>
<!-- check_user_type&#45;&gt;admin_menu -->
<g id="edge6" class="edge">
<title>check_user_type&#45;&gt;admin_menu</title>
<path fill="none" stroke="black" d="M776.82,-1368.19C786.96,-1359.78 798.19,-1350.08 808,-1340.72 814.56,-1334.46 821.36,-1327.38 827.53,-1320.7"/>
<polygon fill="black" stroke="black" points="829.78,-1323.43 833.92,-1313.68 824.6,-1318.72 829.78,-1323.43"/>
<text text-anchor="middle" x="850.25" y="-1332.17" font-family="Arial" font-size="9.00">Администратор</text>
</g>
<!-- user_menu -->
<g id="node18" class="node">
<title>user_menu</title>
<polygon fill="lightgreen" stroke="black" points="786.5,-1312.22 707.5,-1312.22 707.5,-1276.22 786.5,-1276.22 786.5,-1312.22"/>
<text text-anchor="middle" x="747" y="-1297.84" font-family="Arial" font-size="10.00">👤 Меню</text>
<text text-anchor="middle" x="747" y="-1283.59" font-family="Arial" font-size="10.00">пользователя</text>
</g>
<!-- check_user_type&#45;&gt;user_menu -->
<g id="edge7" class="edge">
<title>check_user_type&#45;&gt;user_menu</title>
<path fill="none" stroke="black" d="M747,-1358.4C747,-1347.22 747,-1334.87 747,-1324.08"/>
<polygon fill="black" stroke="black" points="750.5,-1324.21 747,-1314.21 743.5,-1324.21 750.5,-1324.21"/>
<text text-anchor="middle" x="775.5" y="-1332.17" font-family="Arial" font-size="9.00">Пользователь</text>
</g>
<!-- admin_actions -->
<g id="node17" class="node">
<title>admin_actions</title>
<polygon fill="lightgreen" stroke="black" points="895.12,-1239.22 804.88,-1239.22 804.88,-1203.22 895.12,-1203.22 895.12,-1239.22"/>
<text text-anchor="middle" x="850" y="-1224.84" font-family="Arial" font-size="10.00">⚡ Действия</text>
<text text-anchor="middle" x="850" y="-1210.59" font-family="Arial" font-size="10.00">администратора</text>
</g>
<!-- admin_menu&#45;&gt;admin_actions -->
<g id="edge8" class="edge">
<title>admin_menu&#45;&gt;admin_actions</title>
<path fill="none" stroke="black" d="M850,-1276.03C850,-1268.44 850,-1259.32 850,-1250.76"/>
<polygon fill="black" stroke="black" points="853.5,-1250.76 850,-1240.76 846.5,-1250.76 853.5,-1250.76"/>
</g>
<!-- passive_monitoring -->
<g id="node20" class="node">
<title>passive_monitoring</title>
<polygon fill="lightgreen" stroke="black" points="894.38,-1123.72 757.62,-1123.72 757.62,-1087.72 894.38,-1087.72 894.38,-1123.72"/>
<text text-anchor="middle" x="826" y="-1109.34" font-family="Arial" font-size="10.00">📤 Пассивный мониторинг</text>
<text text-anchor="middle" x="826" y="-1095.09" font-family="Arial" font-size="10.00">(пересланные сообщения)</text>
</g>
<!-- admin_actions&#45;&gt;passive_monitoring -->
<g id="edge37" class="edge">
<title>admin_actions&#45;&gt;passive_monitoring</title>
<path fill="none" stroke="black" d="M846.35,-1202.98C842.55,-1184.98 836.52,-1156.45 832.01,-1135.12"/>
<polygon fill="black" stroke="black" points="835.49,-1134.66 829.99,-1125.6 828.64,-1136.11 835.49,-1134.66"/>
<text text-anchor="middle" x="869.61" y="-1176.67" font-family="Arial" font-size="9.00">Настройка</text>
<text text-anchor="middle" x="869.61" y="-1166.17" font-family="Arial" font-size="9.00">мониторинга</text>
</g>
<!-- active_monitoring -->
<g id="node21" class="node">
<title>active_monitoring</title>
<polygon fill="lightgreen" stroke="black" points="1039.88,-1123.72 912.12,-1123.72 912.12,-1087.72 1039.88,-1087.72 1039.88,-1123.72"/>
<text text-anchor="middle" x="976" y="-1109.34" font-family="Arial" font-size="10.00">🤖 Активный мониторинг</text>
<text text-anchor="middle" x="976" y="-1095.09" font-family="Arial" font-size="10.00">(Userbot)</text>
</g>
<!-- admin_actions&#45;&gt;active_monitoring -->
<g id="edge38" class="edge">
<title>admin_actions&#45;&gt;active_monitoring</title>
<path fill="none" stroke="black" d="M877.5,-1202.87C885.34,-1197.53 893.72,-1191.41 901,-1185.22 920.14,-1168.94 939.68,-1148.33 954.02,-1132.31"/>
<polygon fill="black" stroke="black" points="956.42,-1134.89 960.41,-1125.07 951.17,-1130.25 956.42,-1134.89"/>
<text text-anchor="middle" x="948.41" y="-1176.67" font-family="Arial" font-size="9.00">Управление</text>
<text text-anchor="middle" x="948.41" y="-1166.17" font-family="Arial" font-size="9.00">Userbot</text>
</g>
<!-- user_actions -->
<g id="node19" class="node">
<title>user_actions</title>
<polygon fill="lightgreen" stroke="black" points="786.5,-1239.22 707.5,-1239.22 707.5,-1203.22 786.5,-1203.22 786.5,-1239.22"/>
<text text-anchor="middle" x="747" y="-1224.84" font-family="Arial" font-size="10.00">📝 Действия</text>
<text text-anchor="middle" x="747" y="-1210.59" font-family="Arial" font-size="10.00">пользователя</text>
</g>
<!-- user_menu&#45;&gt;user_actions -->
<g id="edge9" class="edge">
<title>user_menu&#45;&gt;user_actions</title>
<path fill="none" stroke="black" d="M747,-1276.03C747,-1268.44 747,-1259.32 747,-1250.76"/>
<polygon fill="black" stroke="black" points="750.5,-1250.76 747,-1240.76 743.5,-1250.76 750.5,-1250.76"/>
</g>
<!-- user_actions&#45;&gt;passive_monitoring -->
<g id="edge39" class="edge">
<title>user_actions&#45;&gt;passive_monitoring</title>
<path fill="none" stroke="black" d="M754.53,-1202.95C759.81,-1191.55 767.4,-1176.52 775.75,-1164.22 783.22,-1153.22 792.55,-1142.01 801.13,-1132.45"/>
<polygon fill="black" stroke="black" points="803.52,-1135.02 807.71,-1125.29 798.36,-1130.29 803.52,-1135.02"/>
<text text-anchor="middle" x="805.38" y="-1176.67" font-family="Arial" font-size="9.00">Предложение</text>
<text text-anchor="middle" x="805.38" y="-1166.17" font-family="Arial" font-size="9.00">поста</text>
</g>
<!-- receive_message -->
<g id="node22" class="node">
<title>receive_message</title>
<polygon fill="lightgreen" stroke="black" points="1013.5,-1050.72 934.5,-1050.72 934.5,-1014.72 1013.5,-1014.72 1013.5,-1050.72"/>
<text text-anchor="middle" x="974" y="-1036.34" font-family="Arial" font-size="10.00">📨 Получение</text>
<text text-anchor="middle" x="974" y="-1022.09" font-family="Arial" font-size="10.00">сообщения</text>
</g>
<!-- passive_monitoring&#45;&gt;receive_message -->
<g id="edge10" class="edge">
<title>passive_monitoring&#45;&gt;receive_message</title>
<path fill="none" stroke="black" d="M862.2,-1087.35C881.82,-1077.94 906.29,-1066.2 927.33,-1056.11"/>
<polygon fill="black" stroke="black" points="928.79,-1059.29 936.29,-1051.81 925.76,-1052.98 928.79,-1059.29"/>
</g>
<!-- active_monitoring&#45;&gt;receive_message -->
<g id="edge11" class="edge">
<title>active_monitoring&#45;&gt;receive_message</title>
<path fill="none" stroke="black" d="M975.52,-1087.53C975.3,-1079.86 975.04,-1070.61 974.8,-1061.96"/>
<polygon fill="black" stroke="black" points="978.3,-1062.16 974.52,-1052.26 971.31,-1062.35 978.3,-1062.16"/>
</g>
<!-- extract_info -->
<g id="node23" class="node">
<title>extract_info</title>
<polygon fill="lightgreen" stroke="black" points="1015.75,-977.72 932.25,-977.72 932.25,-941.72 1015.75,-941.72 1015.75,-977.72"/>
<text text-anchor="middle" x="974" y="-963.34" font-family="Arial" font-size="10.00">🔍 Извлечение</text>
<text text-anchor="middle" x="974" y="-949.09" font-family="Arial" font-size="10.00">информации</text>
</g>
<!-- receive_message&#45;&gt;extract_info -->
<g id="edge16" class="edge">
<title>receive_message&#45;&gt;extract_info</title>
<path fill="none" stroke="black" d="M968.12,-1014.53C967.32,-1006.86 967.07,-997.61 967.38,-988.96"/>
<polygon fill="black" stroke="black" points="970.85,-989.47 968.04,-979.26 963.87,-989 970.85,-989.47"/>
</g>
<!-- receive_message&#45;&gt;extract_info -->
<g id="edge42" class="edge">
<title>receive_message&#45;&gt;extract_info</title>
<path fill="none" stroke="blue" stroke-width="2" d="M979.88,-1014.53C980.63,-1007.38 980.89,-998.86 980.68,-990.74"/>
<polygon fill="blue" stroke="blue" stroke-width="2" points="984.17,-990.53 980.05,-980.77 977.19,-990.97 984.17,-990.53"/>
</g>
<!-- check_source -->
<g id="node24" class="node">
<title>check_source</title>
<polygon fill="yellow" stroke="black" points="968,-904.72 895.75,-870.47 968,-836.22 1040.25,-870.47 968,-904.72"/>
<text text-anchor="middle" x="968" y="-874.09" font-family="Arial" font-size="10.00">✅ Проверка</text>
<text text-anchor="middle" x="968" y="-859.84" font-family="Arial" font-size="10.00">источника</text>
</g>
<!-- extract_info&#45;&gt;check_source -->
<g id="edge17" class="edge">
<title>extract_info&#45;&gt;check_source</title>
<path fill="none" stroke="black" d="M972.81,-941.48C972.29,-933.85 971.65,-924.5 971,-915.15"/>
<polygon fill="black" stroke="black" points="974.51,-915.1 970.33,-905.37 967.53,-915.58 974.51,-915.1"/>
</g>
<!-- ai_analysis -->
<g id="node25" class="node">
<title>ai_analysis</title>
<polygon fill="lightgreen" stroke="black" points="914.12,-779.22 841.88,-779.22 841.88,-743.22 914.12,-743.22 914.12,-779.22"/>
<text text-anchor="middle" x="878" y="-764.84" font-family="Arial" font-size="10.00">🧠 AI анализ</text>
<text text-anchor="middle" x="878" y="-750.59" font-family="Arial" font-size="10.00">важности</text>
</g>
<!-- check_source&#45;&gt;ai_analysis -->
<g id="edge18" class="edge">
<title>check_source&#45;&gt;ai_analysis</title>
<path fill="none" stroke="black" d="M936.13,-850.87C923.52,-842.25 909.75,-831.05 900,-818.22 893.8,-810.06 889.12,-799.93 885.71,-790.54"/>
<polygon fill="black" stroke="black" points="889.05,-789.49 882.62,-781.07 882.39,-791.66 889.05,-789.49"/>
<text text-anchor="middle" x="927" y="-809.67" font-family="Arial" font-size="9.00">Источник</text>
<text text-anchor="middle" x="927" y="-799.17" font-family="Arial" font-size="9.00">мониторится</text>
</g>
<!-- end -->
<g id="node42" class="node">
<title>end</title>
<ellipse fill="lightblue" stroke="black" cx="968" cy="-352.22" rx="44.72" ry="24.22"/>
<text text-anchor="middle" x="968" y="-355.84" font-family="Arial" font-size="10.00">🏁 Конец</text>
<text text-anchor="middle" x="968" y="-341.59" font-family="Arial" font-size="10.00">обработки</text>
</g>
<!-- check_source&#45;&gt;end -->
<g id="edge19" class="edge">
<title>check_source&#45;&gt;end</title>
<path fill="none" stroke="black" d="M968,-836.13C968,-814.96 968,-786.98 968,-762.22 968,-762.22 968,-762.22 968,-472.47 968,-443.95 968,-411.6 968,-387.8"/>
<polygon fill="black" stroke="black" points="971.5,-388.04 968,-378.04 964.5,-388.04 971.5,-388.04"/>
<text text-anchor="middle" x="1001.38" y="-643.67" font-family="Arial" font-size="9.00">Источник</text>
<text text-anchor="middle" x="1001.38" y="-633.17" font-family="Arial" font-size="9.00">не мониторится</text>
</g>
<!-- check_source&#45;&gt;end -->
<g id="edge45" class="edge">
<title>check_source&#45;&gt;end</title>
<path fill="none" stroke="red" d="M996.22,-849.52C1019.94,-830.2 1050,-798.55 1050,-762.22 1050,-762.22 1050,-762.22 1050,-472.47 1050,-435.99 1023.63,-402.54 1000.8,-380.41"/>
<polygon fill="red" stroke="red" points="1003.42,-378.06 993.71,-373.81 998.65,-383.19 1003.42,-378.06"/>
</g>
<!-- giga_chat -->
<g id="node26" class="node">
<title>giga_chat</title>
<polygon fill="lightcoral" stroke="black" points="922.38,-706.22 833.62,-706.22 833.62,-670.22 922.38,-670.22 922.38,-706.22"/>
<text text-anchor="middle" x="878" y="-685.84" font-family="Arial" font-size="10.00">🤖 GigaChat API</text>
</g>
<!-- ai_analysis&#45;&gt;giga_chat -->
<g id="edge20" class="edge">
<title>ai_analysis&#45;&gt;giga_chat</title>
<path fill="none" stroke="black" d="M872.12,-743.03C871.32,-735.36 871.07,-726.11 871.38,-717.46"/>
<polygon fill="black" stroke="black" points="874.85,-717.97 872.04,-707.76 867.87,-717.5 874.85,-717.97"/>
</g>
<!-- ai_analysis&#45;&gt;giga_chat -->
<g id="edge43" class="edge">
<title>ai_analysis&#45;&gt;giga_chat</title>
<path fill="none" stroke="blue" stroke-width="2" d="M883.88,-743.03C884.63,-735.88 884.89,-727.36 884.68,-719.24"/>
<polygon fill="blue" stroke="blue" stroke-width="2" points="888.17,-719.03 884.05,-709.27 881.19,-719.47 888.17,-719.03"/>
</g>
<!-- check_importance -->
<g id="node27" class="node">
<title>check_importance</title>
<polygon fill="yellow" stroke="black" points="866,-613.22 793.75,-578.97 866,-544.72 938.25,-578.97 866,-613.22"/>
<text text-anchor="middle" x="866" y="-582.59" font-family="Arial" font-size="10.00">⭐ Проверка</text>
<text text-anchor="middle" x="866" y="-568.34" font-family="Arial" font-size="10.00">важности</text>
</g>
<!-- giga_chat&#45;&gt;check_importance -->
<g id="edge21" class="edge">
<title>giga_chat&#45;&gt;check_importance</title>
<path fill="none" stroke="black" d="M876.07,-669.99C874.65,-657.29 872.65,-639.43 870.81,-622.96"/>
<polygon fill="black" stroke="black" points="874.33,-622.92 869.74,-613.37 867.37,-623.7 874.33,-622.92"/>
</g>
<!-- check_threshold -->
<g id="node28" class="node">
<title>check_threshold</title>
<polygon fill="yellow" stroke="black" points="862,-507.72 783.75,-473.47 862,-439.22 940.25,-473.47 862,-507.72"/>
<text text-anchor="middle" x="862" y="-477.09" font-family="Arial" font-size="10.00">📊 Сравнение</text>
<text text-anchor="middle" x="862" y="-462.84" font-family="Arial" font-size="10.00">с порогом</text>
</g>
<!-- check_importance&#45;&gt;check_threshold -->
<g id="edge22" class="edge">
<title>check_importance&#45;&gt;check_threshold</title>
<path fill="none" stroke="black" d="M864.72,-544.94C864.4,-536.63 864.05,-527.57 863.71,-518.81"/>
<polygon fill="black" stroke="black" points="867.22,-518.91 863.34,-509.05 860.23,-519.18 867.22,-518.91"/>
</g>
<!-- inline_moderation -->
<g id="node29" class="node">
<title>inline_moderation</title>
<polygon fill="lightgreen" stroke="black" points="792.62,-370.22 687.38,-370.22 687.38,-334.22 792.62,-334.22 792.62,-370.22"/>
<text text-anchor="middle" x="740" y="-355.84" font-family="Arial" font-size="10.00">⚡ Inline модерация</text>
<text text-anchor="middle" x="740" y="-341.59" font-family="Arial" font-size="10.00">(кнопки)</text>
</g>
<!-- check_threshold&#45;&gt;inline_moderation -->
<g id="edge23" class="edge">
<title>check_threshold&#45;&gt;inline_moderation</title>
<path fill="none" stroke="black" d="M838.19,-449.19C817.37,-428.85 787.22,-399.37 765.83,-378.46"/>
<polygon fill="black" stroke="black" points="768.5,-376.18 758.9,-371.69 763.6,-381.18 768.5,-376.18"/>
<text text-anchor="middle" x="824.8" y="-412.67" font-family="Arial" font-size="9.00">Важное</text>
</g>
<!-- check_threshold&#45;&gt;end -->
<g id="edge24" class="edge">
<title>check_threshold&#45;&gt;end</title>
<path fill="none" stroke="black" d="M880.53,-447.13C889.25,-435.69 900.01,-422.19 910.5,-410.72 914,-406.89 915.29,-406.34 919,-402.72 925.84,-396.04 933.14,-388.77 939.94,-381.91"/>
<polygon fill="black" stroke="black" points="942.06,-384.74 946.6,-375.17 937.08,-379.83 942.06,-384.74"/>
<text text-anchor="middle" x="932.25" y="-412.67" font-family="Arial" font-size="9.00">Неважное</text>
</g>
<!-- check_threshold&#45;&gt;end -->
<g id="edge46" class="edge">
<title>check_threshold&#45;&gt;end</title>
<path fill="none" stroke="red" d="M873.46,-444.05C879.33,-432.42 887.5,-419.63 898,-410.72 905.62,-404.26 910.63,-408.17 919,-402.72 927.45,-397.22 935.59,-390.05 942.73,-382.88"/>
<polygon fill="red" stroke="red" points="945.23,-385.33 949.57,-375.67 940.15,-380.52 945.23,-385.33"/>
</g>
<!-- admin_review -->
<g id="node30" class="node">
<title>admin_review</title>
<polygon fill="lightgreen" stroke="black" points="788.5,-291 691.5,-291 691.5,-255 788.5,-255 788.5,-291"/>
<text text-anchor="middle" x="740" y="-276.62" font-family="Arial" font-size="10.00">👑 Рассмотрение</text>
<text text-anchor="middle" x="740" y="-262.38" font-family="Arial" font-size="10.00">администратором</text>
</g>
<!-- inline_moderation&#45;&gt;admin_review -->
<g id="edge25" class="edge">
<title>inline_moderation&#45;&gt;admin_review</title>
<path fill="none" stroke="black" d="M740,-334.08C740,-324.85 740,-313.21 740,-302.65"/>
<polygon fill="black" stroke="black" points="743.5,-302.87 740,-292.87 736.5,-302.87 743.5,-302.87"/>
</g>
<!-- approve_decision -->
<g id="node31" class="node">
<title>approve_decision</title>
<polygon fill="yellow" stroke="black" points="685,-218 618.66,-200 685,-182 751.34,-200 685,-218"/>
<text text-anchor="middle" x="685" y="-197.62" font-family="Arial" font-size="10.00">✅ Одобрить</text>
</g>
<!-- admin_review&#45;&gt;approve_decision -->
<g id="edge26" class="edge">
<title>admin_review&#45;&gt;approve_decision</title>
<path fill="none" stroke="black" d="M726.69,-254.81C719.55,-245.61 710.67,-234.14 702.94,-224.16"/>
<polygon fill="black" stroke="black" points="705.79,-222.12 696.9,-216.36 700.26,-226.41 705.79,-222.12"/>
</g>
<!-- reject_decision -->
<g id="node32" class="node">
<title>reject_decision</title>
<polygon fill="yellow" stroke="black" points="838,-218 768.97,-200 838,-182 907.03,-200 838,-218"/>
<text text-anchor="middle" x="838" y="-197.62" font-family="Arial" font-size="10.00">❌ Отклонить</text>
</g>
<!-- admin_review&#45;&gt;reject_decision -->
<g id="edge27" class="edge">
<title>admin_review&#45;&gt;reject_decision</title>
<path fill="none" stroke="black" d="M763.97,-254.63C778.29,-244.26 796.5,-231.06 811.28,-220.36"/>
<polygon fill="black" stroke="black" points="813.15,-223.32 819.2,-214.62 809.04,-217.66 813.15,-223.32"/>
</g>
<!-- auto_publish -->
<g id="node33" class="node">
<title>auto_publish</title>
<polygon fill="lightgreen" stroke="black" points="710.88,-125 607.12,-125 607.12,-89 710.88,-89 710.88,-125"/>
<text text-anchor="middle" x="659" y="-104.62" font-family="Arial" font-size="10.00">🚀 Автопубликация</text>
</g>
<!-- approve_decision&#45;&gt;auto_publish -->
<g id="edge28" class="edge">
<title>approve_decision&#45;&gt;auto_publish</title>
<path fill="none" stroke="black" d="M664.24,-187.4C655.94,-181.56 647.29,-173.65 642.75,-164 638.57,-155.11 639.89,-144.91 643.15,-135.68"/>
<polygon fill="black" stroke="black" points="646.23,-137.37 647.04,-126.8 639.82,-134.56 646.23,-137.37"/>
<text text-anchor="middle" x="676.88" y="-155.45" font-family="Arial" font-size="9.00">Автопубликация</text>
<text text-anchor="middle" x="676.88" y="-144.95" font-family="Arial" font-size="9.00">включена</text>
</g>
<!-- approve_decision&#45;&gt;auto_publish -->
<g id="edge44" class="edge">
<title>approve_decision&#45;&gt;auto_publish</title>
<path fill="none" stroke="blue" stroke-width="2" d="M698.57,-185.45C708.33,-173.98 718.56,-157.19 711,-143 709.25,-139.71 707.04,-136.68 704.52,-133.89"/>
<polygon fill="blue" stroke="blue" stroke-width="2" points="707.03,-131.44 697.26,-127.36 702.35,-136.65 707.03,-131.44"/>
</g>
<!-- manual_publish -->
<g id="node34" class="node">
<title>manual_publish</title>
<polygon fill="lightgreen" stroke="black" points="798.62,-125 729.38,-125 729.38,-89 798.62,-89 798.62,-125"/>
<text text-anchor="middle" x="764" y="-110.62" font-family="Arial" font-size="10.00">📝 Ручная</text>
<text text-anchor="middle" x="764" y="-96.38" font-family="Arial" font-size="10.00">публикация</text>
</g>
<!-- approve_decision&#45;&gt;manual_publish -->
<g id="edge29" class="edge">
<title>approve_decision&#45;&gt;manual_publish</title>
<path fill="none" stroke="black" d="M697.91,-185.16C703.79,-178.77 710.81,-171.06 717,-164 725.49,-154.31 734.64,-143.49 742.59,-133.97"/>
<polygon fill="black" stroke="black" points="745.12,-136.41 748.82,-126.48 739.74,-131.93 745.12,-136.41"/>
<text text-anchor="middle" x="758.4" y="-155.45" font-family="Arial" font-size="9.00">Ручная</text>
<text text-anchor="middle" x="758.4" y="-144.95" font-family="Arial" font-size="9.00">публикация</text>
</g>
<!-- notify_user -->
<g id="node36" class="node">
<title>notify_user</title>
<polygon fill="lightgreen" stroke="black" points="907.12,-125 816.88,-125 816.88,-89 907.12,-89 907.12,-125"/>
<text text-anchor="middle" x="862" y="-110.62" font-family="Arial" font-size="10.00">📱 Уведомление</text>
<text text-anchor="middle" x="862" y="-96.38" font-family="Arial" font-size="10.00">пользователя</text>
</g>
<!-- approve_decision&#45;&gt;notify_user -->
<g id="edge32" class="edge">
<title>approve_decision&#45;&gt;notify_user</title>
<path fill="none" stroke="black" d="M713.58,-189.47C732.5,-183.53 757.31,-174.93 778,-164 794.62,-155.22 811.53,-142.94 825.91,-132.12"/>
<polygon fill="black" stroke="black" points="827.89,-135.01 833.76,-126.18 823.67,-129.43 827.89,-135.01"/>
</g>
<!-- approve_decision&#45;&gt;notify_user -->
<g id="edge48" class="edge">
<title>approve_decision&#45;&gt;notify_user</title>
<path fill="none" stroke="green" d="M721.62,-191.62C744.09,-185.69 772.66,-176.33 796,-164 812.3,-155.39 828.89,-143.41 841.52,-132.74"/>
<polygon fill="green" stroke="green" points="843.65,-135.52 848.82,-126.27 839.01,-130.28 843.65,-135.52"/>
</g>
<!-- reject_decision&#45;&gt;notify_user -->
<g id="edge33" class="edge">
<title>reject_decision&#45;&gt;notify_user</title>
<path fill="none" stroke="black" d="M837.1,-181.88C839.08,-169 843.52,-151.06 848.3,-136.09"/>
<polygon fill="black" stroke="black" points="851.56,-137.38 851.5,-126.78 844.94,-135.1 851.56,-137.38"/>
</g>
<!-- reject_decision&#45;&gt;notify_user -->
<g id="edge47" class="edge">
<title>reject_decision&#45;&gt;notify_user</title>
<path fill="none" stroke="red" d="M847.13,-183.97C852.14,-171.1 857.5,-152.2 860.8,-136.48"/>
<polygon fill="red" stroke="red" points="864.23,-137.18 862.61,-126.71 857.35,-135.91 864.23,-137.18"/>
</g>
<!-- publish_channel -->
<g id="node35" class="node">
<title>publish_channel</title>
<polygon fill="lightcoral" stroke="black" points="745.62,-52 676.38,-52 676.38,-16 745.62,-16 745.62,-52"/>
<text text-anchor="middle" x="711" y="-37.62" font-family="Arial" font-size="10.00">📢 Канал</text>
<text text-anchor="middle" x="711" y="-23.38" font-family="Arial" font-size="10.00">публикации</text>
</g>
<!-- auto_publish&#45;&gt;publish_channel -->
<g id="edge30" class="edge">
<title>auto_publish&#45;&gt;publish_channel</title>
<path fill="none" stroke="black" d="M665.71,-88.81C670.97,-80.44 678.25,-70.2 685.5,-60.9"/>
<polygon fill="black" stroke="black" points="688.16,-63.19 691.72,-53.21 682.71,-58.79 688.16,-63.19"/>
</g>
<!-- auto_publish&#45;&gt;publish_channel -->
<g id="edge49" class="edge">
<title>auto_publish&#45;&gt;publish_channel</title>
<path fill="none" stroke="green" d="M677.47,-88.81C684.33,-80.62 691.87,-70.62 698.16,-61.48"/>
<polygon fill="green" stroke="green" points="700.97,-63.57 703.56,-53.29 695.13,-59.71 700.97,-63.57"/>
</g>
<!-- manual_publish&#45;&gt;publish_channel -->
<g id="edge31" class="edge">
<title>manual_publish&#45;&gt;publish_channel</title>
<path fill="none" stroke="black" d="M745.29,-88.81C738.31,-80.62 730.63,-70.62 724.22,-61.48"/>
<polygon fill="black" stroke="black" points="727.18,-59.62 718.7,-53.28 721.38,-63.53 727.18,-59.62"/>
</g>
<!-- manual_publish&#45;&gt;publish_channel -->
<g id="edge50" class="edge">
<title>manual_publish&#45;&gt;publish_channel</title>
<path fill="none" stroke="green" d="M757.05,-88.81C751.67,-80.44 744.24,-70.2 736.86,-60.9"/>
<polygon fill="green" stroke="green" points="739.59,-58.7 730.53,-53.2 734.18,-63.15 739.59,-58.7"/>
</g>
<!-- notify_admins -->
<g id="node37" class="node">
<title>notify_admins</title>
<polygon fill="lightgreen" stroke="black" points="905.75,-370.22 810.25,-370.22 810.25,-334.22 905.75,-334.22 905.75,-370.22"/>
<text text-anchor="middle" x="858" y="-355.84" font-family="Arial" font-size="10.00">🔔 Уведомление</text>
<text text-anchor="middle" x="858" y="-341.59" font-family="Arial" font-size="10.00">администраторов</text>
</g>
<!-- userbot_start -->
<g id="node38" class="node">
<title>userbot_start</title>
<polygon fill="lightgreen" stroke="black" points="1171.12,-1410.97 1110.88,-1410.97 1110.88,-1374.97 1171.12,-1374.97 1171.12,-1410.97"/>
<text text-anchor="middle" x="1141" y="-1396.59" font-family="Arial" font-size="10.00">🤖 Запуск</text>
<text text-anchor="middle" x="1141" y="-1382.34" font-family="Arial" font-size="10.00">Userbot</text>
</g>
<!-- userbot_join -->
<g id="node39" class="node">
<title>userbot_join</title>
<polygon fill="lightgreen" stroke="black" points="1191,-1312.22 1091,-1312.22 1091,-1276.22 1191,-1276.22 1191,-1312.22"/>
<text text-anchor="middle" x="1141" y="-1297.84" font-family="Arial" font-size="10.00">➕ Присоединение</text>
<text text-anchor="middle" x="1141" y="-1283.59" font-family="Arial" font-size="10.00">к каналу</text>
</g>
<!-- userbot_start&#45;&gt;userbot_join -->
<g id="edge12" class="edge">
<title>userbot_start&#45;&gt;userbot_join</title>
<path fill="none" stroke="black" d="M1141,-1374.67C1141,-1360.59 1141,-1340.41 1141,-1323.91"/>
<polygon fill="black" stroke="black" points="1144.5,-1324.21 1141,-1314.21 1137.5,-1324.21 1144.5,-1324.21"/>
</g>
<!-- userbot_monitor -->
<g id="node40" class="node">
<title>userbot_monitor</title>
<polygon fill="lightgreen" stroke="black" points="1177,-1239.22 1095,-1239.22 1095,-1203.22 1177,-1203.22 1177,-1239.22"/>
<text text-anchor="middle" x="1136" y="-1224.84" font-family="Arial" font-size="10.00">👁️ Мониторинг</text>
<text text-anchor="middle" x="1136" y="-1210.59" font-family="Arial" font-size="10.00">сообщений</text>
</g>
<!-- userbot_join&#45;&gt;userbot_monitor -->
<g id="edge13" class="edge">
<title>userbot_join&#45;&gt;userbot_monitor</title>
<path fill="none" stroke="black" d="M1139.79,-1276.03C1139.25,-1268.36 1138.6,-1259.11 1137.99,-1250.46"/>
<polygon fill="black" stroke="black" points="1141.5,-1250.49 1137.31,-1240.76 1134.52,-1250.98 1141.5,-1250.49"/>
</g>
<!-- userbot_process -->
<g id="node41" class="node">
<title>userbot_process</title>
<polygon fill="lightgreen" stroke="black" points="1172.12,-1123.72 1093.88,-1123.72 1093.88,-1087.72 1172.12,-1087.72 1172.12,-1123.72"/>
<text text-anchor="middle" x="1133" y="-1109.34" font-family="Arial" font-size="10.00">🔄 Обработка</text>
<text text-anchor="middle" x="1133" y="-1095.09" font-family="Arial" font-size="10.00">сообщений</text>
</g>
<!-- userbot_monitor&#45;&gt;userbot_process -->
<g id="edge14" class="edge">
<title>userbot_monitor&#45;&gt;userbot_process</title>
<path fill="none" stroke="black" d="M1135.54,-1202.98C1135.07,-1185.06 1134.32,-1156.72 1133.76,-1135.42"/>
<polygon fill="black" stroke="black" points="1137.26,-1135.54 1133.5,-1125.63 1130.27,-1135.72 1137.26,-1135.54"/>
</g>
<!-- userbot_process&#45;&gt;receive_message -->
<g id="edge15" class="edge">
<title>userbot_process&#45;&gt;receive_message</title>
<path fill="none" stroke="black" d="M1094.1,-1087.35C1072.83,-1077.85 1046.26,-1065.99 1023.52,-1055.83"/>
<polygon fill="black" stroke="black" points="1024.99,-1052.65 1014.43,-1051.77 1022.13,-1059.04 1024.99,-1052.65"/>
</g>
</g>
</svg>
