<?xml version="1.0" encoding="UTF-8" standalone="no"?>
<!DOCTYPE svg PUBLIC "-//W3C//DTD SVG 1.1//EN"
 "http://www.w3.org/Graphics/SVG/1.1/DTD/svg11.dtd">
<!-- Generated by graphviz version 12.2.1 (20241206.2353)
 -->
<!-- Title: ModerationFlow Pages: 1 -->
<svg width="1090pt" height="1230pt"
 viewBox="0.00 0.00 1089.75 1230.00" xmlns="http://www.w3.org/2000/svg" xmlns:xlink="http://www.w3.org/1999/xlink">
<g id="graph0" class="graph" transform="scale(1 1) rotate(0) translate(4 1226)">
<title>ModerationFlow</title>
<polygon fill="white" stroke="none" points="-4,4 -4,-1226 1085.75,-1226 1085.75,4 -4,4"/>
<g id="clust2" class="cluster">
<title>cluster_post_creation</title>
<polygon fill="lightgreen" stroke="lightgreen" points="802,-886 802,-1157.75 928,-1157.75 928,-886 802,-886"/>
<text text-anchor="middle" x="865" y="-1140.45" font-family="Times,serif" font-size="14.00">📝 Создание поста</text>
</g>
<g id="clust3" class="cluster">
<title>cluster_notifications</title>
<polygon fill="lightyellow" stroke="lightyellow" points="269,-642.25 269,-867 486,-867 486,-642.25 269,-642.25"/>
<text text-anchor="middle" x="377.5" y="-849.7" font-family="Times,serif" font-size="14.00">🔔 Уведомления администраторов</text>
</g>
<g id="clust4" class="cluster">
<title>cluster_moderation</title>
<polygon fill="lightpink" stroke="lightpink" points="79,-450 79,-623.25 440,-623.25 440,-450 79,-450"/>
<text text-anchor="middle" x="259.5" y="-605.95" font-family="Times,serif" font-size="14.00">👑 Процесс модерации</text>
</g>
<g id="clust5" class="cluster">
<title>cluster_results</title>
<polygon fill="lightblue" stroke="lightblue" points="266,-105.75 266,-409.75 433,-409.75 433,-105.75 266,-105.75"/>
<text text-anchor="middle" x="349.5" y="-392.45" font-family="Times,serif" font-size="14.00">🎯 Результаты модерации</text>
</g>
<g id="clust6" class="cluster">
<title>cluster_storage</title>
<polygon fill="lightgrey" stroke="lightgrey" points="164,-8 164,-86.75 562,-86.75 562,-8 164,-8"/>
<text text-anchor="middle" x="363" y="-69.45" font-family="Times,serif" font-size="14.00">💾 Хранилища данных</text>
</g>
<g id="clust8" class="cluster">
<title>cluster_examples</title>
<polygon fill="lightpink" stroke="lightpink" points="471,-198.75 471,-338 926,-338 926,-198.75 471,-198.75"/>
<text text-anchor="middle" x="698.5" y="-320.7" font-family="Times,serif" font-size="14.00">📋 Примеры уведомлений</text>
</g>
<!-- user_submit -->
<g id="node1" class="node">
<title>user_submit</title>
<polygon fill="lightgreen" stroke="black" points="840,-1222 746,-1222 746,-1186 840,-1186 840,-1222"/>
<text text-anchor="middle" x="793" y="-1207.62" font-family="Arial" font-size="10.00">👤 Пользователь</text>
<text text-anchor="middle" x="793" y="-1193.38" font-family="Arial" font-size="10.00">предлагает пост</text>
</g>
<!-- create_post -->
<g id="node4" class="node">
<title>create_post</title>
<polygon fill="lightyellow" stroke="black" points="917.25,-1149 836.75,-1149 836.75,-1113 917.25,-1113 917.25,-1149"/>
<text text-anchor="middle" x="877" y="-1134.62" font-family="Arial" font-size="10.00">📋 Создание</text>
<text text-anchor="middle" x="877" y="-1120.38" font-family="Arial" font-size="10.00">объекта поста</text>
</g>
<!-- user_submit&#45;&gt;create_post -->
<g id="edge1" class="edge">
<title>user_submit&#45;&gt;create_post</title>
<path fill="none" stroke="black" d="M807.46,-1185.81C816.98,-1176.98 829.7,-1166.07 841.7,-1156.39"/>
<polygon fill="black" stroke="black" points="843.83,-1159.17 849.49,-1150.22 839.48,-1153.68 843.83,-1159.17"/>
</g>
<!-- user_submit&#45;&gt;create_post -->
<g id="edge32" class="edge">
<title>user_submit&#45;&gt;create_post</title>
<path fill="none" stroke="blue" stroke-width="2" d="M819.21,-1185.81C830.03,-1177.42 842.4,-1167.14 852.97,-1157.82"/>
<polygon fill="blue" stroke="blue" stroke-width="2" points="855.12,-1160.6 860.2,-1151.3 850.43,-1155.4 855.12,-1160.6"/>
</g>
<!-- auto_detect -->
<g id="node2" class="node">
<title>auto_detect</title>
<polygon fill="lightgreen" stroke="black" points="973.88,-1222 858.12,-1222 858.12,-1186 973.88,-1186 973.88,-1222"/>
<text text-anchor="middle" x="916" y="-1207.62" font-family="Arial" font-size="10.00">🤖 Автоматическое</text>
<text text-anchor="middle" x="916" y="-1193.38" font-family="Arial" font-size="10.00">обнаружение важного</text>
</g>
<!-- auto_detect&#45;&gt;create_post -->
<g id="edge2" class="edge">
<title>auto_detect&#45;&gt;create_post</title>
<path fill="none" stroke="black" d="M906.56,-1185.81C902.15,-1177.79 896.8,-1168.05 891.87,-1159.07"/>
<polygon fill="black" stroke="black" points="894.96,-1157.44 887.08,-1150.36 888.83,-1160.81 894.96,-1157.44"/>
</g>
<!-- forwarded_message -->
<g id="node3" class="node">
<title>forwarded_message</title>
<polygon fill="lightgreen" stroke="black" points="1081.75,-1222 992.25,-1222 992.25,-1186 1081.75,-1186 1081.75,-1222"/>
<text text-anchor="middle" x="1037" y="-1207.62" font-family="Arial" font-size="10.00">📤 Пересланное</text>
<text text-anchor="middle" x="1037" y="-1193.38" font-family="Arial" font-size="10.00">сообщение</text>
</g>
<!-- forwarded_message&#45;&gt;create_post -->
<g id="edge3" class="edge">
<title>forwarded_message&#45;&gt;create_post</title>
<path fill="none" stroke="black" d="M997.86,-1185.63C976.36,-1176.09 949.47,-1164.16 926.53,-1153.98"/>
<polygon fill="black" stroke="black" points="928.23,-1150.91 917.67,-1150.05 925.4,-1157.3 928.23,-1150.91"/>
</g>
<!-- generate_id -->
<g id="node5" class="node">
<title>generate_id</title>
<polygon fill="lightyellow" stroke="black" points="919.88,-1076 834.12,-1076 834.12,-1040 919.88,-1040 919.88,-1076"/>
<text text-anchor="middle" x="877" y="-1061.62" font-family="Arial" font-size="10.00">🆔 Генерация</text>
<text text-anchor="middle" x="877" y="-1047.38" font-family="Arial" font-size="10.00">уникального ID</text>
</g>
<!-- create_post&#45;&gt;generate_id -->
<g id="edge4" class="edge">
<title>create_post&#45;&gt;generate_id</title>
<path fill="none" stroke="black" d="M877,-1112.81C877,-1105.23 877,-1096.1 877,-1087.54"/>
<polygon fill="black" stroke="black" points="880.5,-1087.54 877,-1077.54 873.5,-1087.54 880.5,-1087.54"/>
</g>
<!-- save_post -->
<g id="node6" class="node">
<title>save_post</title>
<polygon fill="lightyellow" stroke="black" points="919.75,-1003 836.25,-1003 836.25,-967 919.75,-967 919.75,-1003"/>
<text text-anchor="middle" x="878" y="-988.62" font-family="Arial" font-size="10.00">💾 Сохранение</text>
<text text-anchor="middle" x="878" y="-974.38" font-family="Arial" font-size="10.00">в очередь</text>
</g>
<!-- generate_id&#45;&gt;save_post -->
<g id="edge5" class="edge">
<title>generate_id&#45;&gt;save_post</title>
<path fill="none" stroke="black" d="M877.24,-1039.81C877.35,-1032.23 877.48,-1023.1 877.6,-1014.54"/>
<polygon fill="black" stroke="black" points="881.1,-1014.59 877.74,-1004.54 874.1,-1014.49 881.1,-1014.59"/>
</g>
<!-- ai_evaluation -->
<g id="node7" class="node">
<title>ai_evaluation</title>
<polygon fill="lightyellow" stroke="black" points="881.75,-930 810.25,-930 810.25,-894 881.75,-894 881.75,-930"/>
<text text-anchor="middle" x="846" y="-915.62" font-family="Arial" font-size="10.00">🧠 AI оценка</text>
<text text-anchor="middle" x="846" y="-901.38" font-family="Arial" font-size="10.00">важности</text>
</g>
<!-- save_post&#45;&gt;ai_evaluation -->
<g id="edge6" class="edge">
<title>save_post&#45;&gt;ai_evaluation</title>
<path fill="none" stroke="black" d="M870.25,-966.81C866.68,-958.88 862.34,-949.26 858.33,-940.36"/>
<polygon fill="black" stroke="black" points="861.6,-939.09 854.3,-931.41 855.22,-941.96 861.6,-939.09"/>
</g>
<!-- pending_posts -->
<g id="node20" class="node">
<title>pending_posts</title>
<polygon fill="orange" stroke="black" points="554.38,-52 441.62,-52 441.62,-16 554.38,-16 554.38,-52"/>
<text text-anchor="middle" x="498" y="-37.62" font-family="Arial" font-size="10.00">📝 pending_posts.json</text>
<text text-anchor="middle" x="498" y="-23.38" font-family="Arial" font-size="10.00">(очередь модерации)</text>
</g>
<!-- save_post&#45;&gt;pending_posts -->
<g id="edge23" class="edge">
<title>save_post&#45;&gt;pending_posts</title>
<path fill="none" stroke="black" d="M907.78,-966.51C926.14,-954.58 946,-936.64 946,-913 946,-913 946,-913 946,-130.75 946,-53.32 691.51,-38.13 566.09,-35.41"/>
<polygon fill="black" stroke="black" points="566.31,-31.91 556.25,-35.22 566.18,-38.91 566.31,-31.91"/>
</g>
<!-- save_post&#45;&gt;pending_posts -->
<g id="edge40" class="edge">
<title>save_post&#45;&gt;pending_posts</title>
<path fill="none" stroke="orange" d="M920.07,-968.39C941.95,-956.49 964,-937.91 964,-913 964,-913 964,-913 964,-130.75 964,-51.18 695.23,-37.34 565.86,-35.21"/>
<polygon fill="orange" stroke="orange" points="566.1,-31.71 556.05,-35.07 566,-38.71 566.1,-31.71"/>
</g>
<!-- notify_admins -->
<g id="node8" class="node">
<title>notify_admins</title>
<polygon fill="lightcoral" stroke="black" points="478.12,-832.25 387.88,-832.25 387.88,-796.25 478.12,-796.25 478.12,-832.25"/>
<text text-anchor="middle" x="433" y="-817.88" font-family="Arial" font-size="10.00">📢 Уведомление</text>
<text text-anchor="middle" x="433" y="-803.62" font-family="Arial" font-size="10.00">всех админов</text>
</g>
<!-- ai_evaluation&#45;&gt;notify_admins -->
<g id="edge7" class="edge">
<title>ai_evaluation&#45;&gt;notify_admins</title>
<path fill="none" stroke="black" d="M810.07,-902.67C738.14,-885.99 575.94,-848.39 489.59,-828.37"/>
<polygon fill="black" stroke="black" points="490.44,-824.97 479.91,-826.13 488.86,-831.79 490.44,-824.97"/>
</g>
<!-- bot_config -->
<g id="node21" class="node">
<title>bot_config</title>
<polygon fill="orange" stroke="black" points="266.38,-52 171.62,-52 171.62,-16 266.38,-16 266.38,-52"/>
<text text-anchor="middle" x="219" y="-37.62" font-family="Arial" font-size="10.00">🤖 bot_config.json</text>
<text text-anchor="middle" x="219" y="-23.38" font-family="Arial" font-size="10.00">(настройки)</text>
</g>
<!-- ai_evaluation&#45;&gt;bot_config -->
<g id="edge25" class="edge">
<title>ai_evaluation&#45;&gt;bot_config</title>
<path fill="none" stroke="black" d="M809.92,-910.77C648.44,-909.26 0,-898.07 0,-815.25 0,-815.25 0,-815.25 0,-130.75 0,-60.78 95.02,-41.44 159.88,-36.39"/>
<polygon fill="black" stroke="black" points="159.96,-39.9 169.7,-35.73 159.49,-32.91 159.96,-39.9"/>
<text text-anchor="middle" x="35.25" y="-525.2" font-family="Arial" font-size="9.00">Чтение</text>
<text text-anchor="middle" x="35.25" y="-514.7" font-family="Arial" font-size="9.00">порога важности</text>
</g>
<!-- inline_buttons -->
<g id="node9" class="node">
<title>inline_buttons</title>
<polygon fill="lightcoral" stroke="black" points="475.5,-759.25 390.5,-759.25 390.5,-723.25 475.5,-723.25 475.5,-759.25"/>
<text text-anchor="middle" x="433" y="-744.88" font-family="Arial" font-size="10.00">🔘 Inline кнопки</text>
<text text-anchor="middle" x="433" y="-730.62" font-family="Arial" font-size="10.00">модерации</text>
</g>
<!-- notify_admins&#45;&gt;inline_buttons -->
<g id="edge8" class="edge">
<title>notify_admins&#45;&gt;inline_buttons</title>
<path fill="none" stroke="black" d="M433,-796.06C433,-788.48 433,-779.35 433,-770.79"/>
<polygon fill="black" stroke="black" points="436.5,-770.79 433,-760.79 429.5,-770.79 436.5,-770.79"/>
</g>
<!-- admin_notification -->
<g id="node26" class="node">
<title>admin_notification</title>
<polygon fill="lightyellow" stroke="black" points="917.5,-303.25 682.5,-303.25 682.5,-206.75 917.5,-206.75 917.5,-303.25"/>
<text text-anchor="middle" x="800" y="-289.75" font-family="Arial" font-size="10.00">📝 Новый пост на модерации</text>
<text text-anchor="middle" x="800" y="-263.5" font-family="Arial" font-size="10.00">ID: abc12345</text>
<text text-anchor="middle" x="800" y="-251.5" font-family="Arial" font-size="10.00">От: @user_name</text>
<text text-anchor="middle" x="800" y="-239.5" font-family="Arial" font-size="10.00">Оценка ИИ: 0.85</text>
<text text-anchor="middle" x="800" y="-215.5" font-family="Arial" font-size="10.00">[✅ Одобрить] [❌ Отклонить] [📄 Полный текст]</text>
</g>
<!-- notify_admins&#45;&gt;admin_notification -->
<g id="edge30" class="edge">
<title>notify_admins&#45;&gt;admin_notification</title>
<path fill="none" stroke="black" d="M478.37,-813.86C576.56,-813.96 800,-807.07 800,-742.25 800,-742.25 800,-742.25 800,-382 800,-360.13 800,-336.12 800,-314.98"/>
<polygon fill="black" stroke="black" points="803.5,-315.08 800,-305.08 796.5,-315.08 803.5,-315.08"/>
</g>
<!-- post_preview -->
<g id="node10" class="node">
<title>post_preview</title>
<polygon fill="lightcoral" stroke="black" points="432.38,-686.25 367.62,-686.25 367.62,-650.25 432.38,-650.25 432.38,-686.25"/>
<text text-anchor="middle" x="400" y="-671.88" font-family="Arial" font-size="10.00">👀 Превью</text>
<text text-anchor="middle" x="400" y="-657.62" font-family="Arial" font-size="10.00">поста</text>
</g>
<!-- inline_buttons&#45;&gt;post_preview -->
<g id="edge9" class="edge">
<title>inline_buttons&#45;&gt;post_preview</title>
<path fill="none" stroke="black" d="M425.01,-723.06C421.32,-715.13 416.85,-705.51 412.72,-696.61"/>
<polygon fill="black" stroke="black" points="415.94,-695.24 408.55,-687.65 409.59,-698.19 415.94,-695.24"/>
</g>
<!-- approve_button -->
<g id="node23" class="node">
<title>approve_button</title>
<polygon fill="lightgreen" stroke="black" points="771.62,-686.25 636.38,-686.25 636.38,-650.25 771.62,-650.25 771.62,-686.25"/>
<text text-anchor="middle" x="704" y="-671.88" font-family="Arial" font-size="10.00">✅ Одобрить</text>
<text text-anchor="middle" x="704" y="-657.62" font-family="Arial" font-size="10.00">callback: approve_post_{id}</text>
</g>
<!-- inline_buttons&#45;&gt;approve_button -->
<g id="edge27" class="edge">
<title>inline_buttons&#45;&gt;approve_button</title>
<path fill="none" stroke="black" d="M475.94,-729C516.25,-718.44 577.49,-702.4 626.36,-689.59"/>
<polygon fill="black" stroke="black" points="626.97,-693.05 635.76,-687.13 625.2,-686.28 626.97,-693.05"/>
</g>
<!-- reject_button -->
<g id="node24" class="node">
<title>reject_button</title>
<polygon fill="lightcoral" stroke="black" points="618.38,-686.25 493.62,-686.25 493.62,-650.25 618.38,-650.25 618.38,-686.25"/>
<text text-anchor="middle" x="556" y="-671.88" font-family="Arial" font-size="10.00">❌ Отклонить</text>
<text text-anchor="middle" x="556" y="-657.62" font-family="Arial" font-size="10.00">callback: reject_post_{id}</text>
</g>
<!-- inline_buttons&#45;&gt;reject_button -->
<g id="edge28" class="edge">
<title>inline_buttons&#45;&gt;reject_button</title>
<path fill="none" stroke="black" d="M463.09,-722.88C479.02,-713.68 498.8,-702.27 516.01,-692.33"/>
<polygon fill="black" stroke="black" points="517.57,-695.47 524.48,-687.44 514.07,-689.41 517.57,-695.47"/>
</g>
<!-- full_text_button -->
<g id="node25" class="node">
<title>full_text_button</title>
<polygon fill="lightblue" stroke="black" points="260.62,-686.25 149.38,-686.25 149.38,-650.25 260.62,-650.25 260.62,-686.25"/>
<text text-anchor="middle" x="205" y="-671.88" font-family="Arial" font-size="10.00">📄 Полный текст</text>
<text text-anchor="middle" x="205" y="-657.62" font-family="Arial" font-size="10.00">callback: full_text_{id}</text>
</g>
<!-- inline_buttons&#45;&gt;full_text_button -->
<g id="edge29" class="edge">
<title>inline_buttons&#45;&gt;full_text_button</title>
<path fill="none" stroke="black" d="M390.11,-726.9C356.75,-716.5 309.84,-701.9 271.6,-689.99"/>
<polygon fill="black" stroke="black" points="273.09,-686.79 262.51,-687.16 271.01,-693.47 273.09,-686.79"/>
</g>
<!-- admin_review -->
<g id="node11" class="node">
<title>admin_review</title>
<polygon fill="lightgreen" stroke="black" points="395.62,-588.5 296.38,-588.5 296.38,-552.5 395.62,-552.5 395.62,-588.5"/>
<text text-anchor="middle" x="346" y="-574.12" font-family="Arial" font-size="10.00">👑 Администратор</text>
<text text-anchor="middle" x="346" y="-559.88" font-family="Arial" font-size="10.00">рассматривает</text>
</g>
<!-- post_preview&#45;&gt;admin_review -->
<g id="edge10" class="edge">
<title>post_preview&#45;&gt;admin_review</title>
<path fill="none" stroke="black" d="M390.35,-650.13C382.26,-635.79 370.56,-615.06 361.22,-598.48"/>
<polygon fill="black" stroke="black" points="364.46,-597.1 356.5,-590.11 358.36,-600.54 364.46,-597.1"/>
</g>
<!-- approve_action -->
<g id="node12" class="node">
<title>approve_action</title>
<polygon fill="lightgreen" stroke="black" points="259.25,-494 184.75,-494 184.75,-458 259.25,-458 259.25,-494"/>
<text text-anchor="middle" x="222" y="-479.62" font-family="Arial" font-size="10.00">✅ Действие:</text>
<text text-anchor="middle" x="222" y="-465.38" font-family="Arial" font-size="10.00">Одобрить</text>
</g>
<!-- admin_review&#45;&gt;approve_action -->
<g id="edge11" class="edge">
<title>admin_review&#45;&gt;approve_action</title>
<path fill="none" stroke="black" d="M314.75,-552.16C306,-546.86 296.65,-540.77 288.5,-534.5 277.03,-525.69 275.84,-521.57 265,-512 261.16,-508.61 257.06,-505.12 252.98,-501.71"/>
<polygon fill="black" stroke="black" points="255.28,-499.07 245.33,-495.43 250.83,-504.48 255.28,-499.07"/>
<text text-anchor="middle" x="314.75" y="-525.95" font-family="Arial" font-size="9.00">Нажатие</text>
<text text-anchor="middle" x="314.75" y="-515.45" font-family="Arial" font-size="9.00">✅ Одобрить</text>
</g>
<!-- admin_review&#45;&gt;approve_action -->
<g id="edge33" class="edge">
<title>admin_review&#45;&gt;approve_action</title>
<path fill="none" stroke="blue" stroke-width="2" d="M349.24,-552.26C350.57,-539.73 350.07,-523.09 341,-512 324.47,-491.8 296.91,-482.88 272.48,-479.09"/>
<polygon fill="blue" stroke="blue" stroke-width="2" points="273.05,-475.63 262.69,-477.88 272.19,-482.58 273.05,-475.63"/>
</g>
<!-- reject_action -->
<g id="node13" class="node">
<title>reject_action</title>
<polygon fill="lightgreen" stroke="black" points="414.25,-494 339.75,-494 339.75,-458 414.25,-458 414.25,-494"/>
<text text-anchor="middle" x="377" y="-479.62" font-family="Arial" font-size="10.00">❌ Действие:</text>
<text text-anchor="middle" x="377" y="-465.38" font-family="Arial" font-size="10.00">Отклонить</text>
</g>
<!-- admin_review&#45;&gt;reject_action -->
<g id="edge12" class="edge">
<title>admin_review&#45;&gt;reject_action</title>
<path fill="none" stroke="black" d="M351.83,-552.1C356.29,-538.79 362.53,-520.18 367.68,-504.81"/>
<polygon fill="black" stroke="black" points="370.86,-506.35 370.71,-495.76 364.22,-504.13 370.86,-506.35"/>
<text text-anchor="middle" x="392.56" y="-525.95" font-family="Arial" font-size="9.00">Нажатие</text>
<text text-anchor="middle" x="392.56" y="-515.45" font-family="Arial" font-size="9.00">❌ Отклонить</text>
</g>
<!-- admin_review&#45;&gt;reject_action -->
<g id="edge38" class="edge">
<title>admin_review&#45;&gt;reject_action</title>
<path fill="none" stroke="red" d="M348.29,-552.02C350.14,-540.43 353.22,-525.02 358,-512 358.92,-509.48 360,-506.92 361.17,-504.39"/>
<polygon fill="red" stroke="red" points="364.19,-506.18 365.61,-495.68 357.95,-503.01 364.19,-506.18"/>
</g>
<!-- full_text_action -->
<g id="node14" class="node">
<title>full_text_action</title>
<polygon fill="lightgreen" stroke="black" points="166.88,-494 87.12,-494 87.12,-458 166.88,-458 166.88,-494"/>
<text text-anchor="middle" x="127" y="-479.62" font-family="Arial" font-size="10.00">📄 Действие:</text>
<text text-anchor="middle" x="127" y="-465.38" font-family="Arial" font-size="10.00">Полный текст</text>
</g>
<!-- admin_review&#45;&gt;full_text_action -->
<g id="edge13" class="edge">
<title>admin_review&#45;&gt;full_text_action</title>
<path fill="none" stroke="black" d="M296,-566.26C264.45,-562.32 223.92,-553.62 192.75,-534.5 181.65,-527.69 183.45,-520.95 174,-512 170.14,-508.35 165.9,-504.72 161.59,-501.28"/>
<polygon fill="black" stroke="black" points="164.02,-498.73 153.96,-495.41 159.75,-504.28 164.02,-498.73"/>
<text text-anchor="middle" x="226.88" y="-525.95" font-family="Arial" font-size="9.00">Нажатие</text>
<text text-anchor="middle" x="226.88" y="-515.45" font-family="Arial" font-size="9.00">📄 Полный текст</text>
</g>
<!-- auto_publish -->
<g id="node15" class="node">
<title>auto_publish</title>
<polygon fill="lightgreen" stroke="black" points="169.88,-401 66.12,-401 66.12,-365 169.88,-365 169.88,-401"/>
<text text-anchor="middle" x="118" y="-386.62" font-family="Arial" font-size="10.00">🚀 Автопубликация</text>
<text text-anchor="middle" x="118" y="-372.38" font-family="Arial" font-size="10.00">(если включена)</text>
</g>
<!-- approve_action&#45;&gt;auto_publish -->
<g id="edge15" class="edge">
<title>approve_action&#45;&gt;auto_publish</title>
<path fill="none" stroke="black" d="M192.28,-457.61C186.96,-454.86 181.39,-452.2 176,-450 160.92,-443.85 152.88,-450.87 140.75,-440 132.63,-432.72 127.35,-422.13 123.95,-412.11"/>
<polygon fill="black" stroke="black" points="127.38,-411.36 121.27,-402.7 120.64,-413.28 127.38,-411.36"/>
<text text-anchor="middle" x="174.88" y="-431.45" font-family="Arial" font-size="9.00">Автопубликация</text>
<text text-anchor="middle" x="174.88" y="-420.95" font-family="Arial" font-size="9.00">включена</text>
</g>
<!-- approve_action&#45;&gt;auto_publish -->
<g id="edge34" class="edge">
<title>approve_action&#45;&gt;auto_publish</title>
<path fill="none" stroke="blue" stroke-width="2" d="M193.43,-457.71C187.8,-454.81 181.82,-452.07 176,-450 153.42,-441.96 139.1,-457.76 123,-440 116.74,-433.1 114.46,-423.57 114.05,-414.32"/>
<polygon fill="blue" stroke="blue" stroke-width="2" points="117.54,-414.47 114.43,-404.34 110.55,-414.2 117.54,-414.47"/>
</g>
<!-- manual_publish -->
<g id="node16" class="node">
<title>manual_publish</title>
<polygon fill="lightgreen" stroke="black" points="257.62,-401 188.38,-401 188.38,-365 257.62,-365 257.62,-401"/>
<text text-anchor="middle" x="223" y="-386.62" font-family="Arial" font-size="10.00">📝 Ручная</text>
<text text-anchor="middle" x="223" y="-372.38" font-family="Arial" font-size="10.00">публикация</text>
</g>
<!-- approve_action&#45;&gt;manual_publish -->
<g id="edge16" class="edge">
<title>approve_action&#45;&gt;manual_publish</title>
<path fill="none" stroke="black" d="M217.38,-457.68C216.1,-452.08 214.89,-445.82 214.25,-440 213.24,-430.72 213.11,-428.26 214.25,-419 214.52,-416.81 214.88,-414.56 215.3,-412.3"/>
<polygon fill="black" stroke="black" points="218.67,-413.29 217.45,-402.77 211.84,-411.75 218.67,-413.29"/>
<text text-anchor="middle" x="238.62" y="-431.45" font-family="Arial" font-size="9.00">Ручная</text>
<text text-anchor="middle" x="238.62" y="-420.95" font-family="Arial" font-size="9.00">публикация</text>
</g>
<!-- approve_action&#45;&gt;manual_publish -->
<g id="edge35" class="edge">
<title>approve_action&#45;&gt;manual_publish</title>
<path fill="none" stroke="green" d="M249.04,-457.76C254.68,-452.77 259.86,-446.8 263,-440 266.91,-431.52 266.86,-427.5 263,-419 261.47,-415.64 259.45,-412.47 257.12,-409.52"/>
<polygon fill="green" stroke="green" points="259.85,-407.32 250.44,-402.45 254.76,-412.12 259.85,-407.32"/>
</g>
<!-- update_status -->
<g id="node19" class="node">
<title>update_status</title>
<polygon fill="lightyellow" stroke="black" points="414.5,-149.75 329.5,-149.75 329.5,-113.75 414.5,-113.75 414.5,-149.75"/>
<text text-anchor="middle" x="372" y="-135.38" font-family="Arial" font-size="10.00">📊 Обновление</text>
<text text-anchor="middle" x="372" y="-121.12" font-family="Arial" font-size="10.00">статуса</text>
</g>
<!-- approve_action&#45;&gt;update_status -->
<g id="edge20" class="edge">
<title>approve_action&#45;&gt;update_status</title>
<path fill="none" stroke="black" d="M193.49,-457.55C187.85,-454.66 181.86,-451.97 176,-450 123.09,-432.16 85.23,-457.92 57,-409.75 46.94,-392.59 48.09,-382.78 57,-365 111.55,-256.15 244.06,-185.9 318.67,-153.53"/>
<polygon fill="black" stroke="black" points="320.02,-156.76 327.85,-149.63 317.28,-150.32 320.02,-156.76"/>
</g>
<!-- notify_author -->
<g id="node18" class="node">
<title>notify_author</title>
<polygon fill="lightgreen" stroke="black" points="424.12,-401 333.88,-401 333.88,-365 424.12,-365 424.12,-401"/>
<text text-anchor="middle" x="379" y="-386.62" font-family="Arial" font-size="10.00">📱 Уведомление</text>
<text text-anchor="middle" x="379" y="-372.38" font-family="Arial" font-size="10.00">автору</text>
</g>
<!-- reject_action&#45;&gt;notify_author -->
<g id="edge19" class="edge">
<title>reject_action&#45;&gt;notify_author</title>
<path fill="none" stroke="black" d="M371.96,-457.88C370.84,-445.13 370.93,-427.42 372.06,-412.53"/>
<polygon fill="black" stroke="black" points="375.51,-413.15 373.03,-402.86 368.55,-412.46 375.51,-413.15"/>
</g>
<!-- reject_action&#45;&gt;notify_author -->
<g id="edge39" class="edge">
<title>reject_action&#45;&gt;notify_author</title>
<path fill="none" stroke="red" d="M382.79,-457.88C384.47,-445.13 385.16,-427.42 384.69,-412.53"/>
<polygon fill="red" stroke="red" points="388.2,-412.65 384.14,-402.86 381.21,-413.04 388.2,-412.65"/>
</g>
<!-- reject_action&#45;&gt;update_status -->
<g id="edge21" class="edge">
<title>reject_action&#45;&gt;update_status</title>
<path fill="none" stroke="black" d="M358.06,-457.56C346.26,-445.42 332.02,-428.16 325,-409.75 312.23,-376.27 313.27,-221.39 321,-198.75 326.06,-183.94 335.94,-169.86 345.67,-158.55"/>
<polygon fill="black" stroke="black" points="348.19,-160.98 352.32,-151.22 343.01,-156.27 348.19,-160.98"/>
</g>
<!-- full_text_action&#45;&gt;admin_review -->
<g id="edge14" class="edge">
<title>full_text_action&#45;&gt;admin_review</title>
<path fill="none" stroke="black" d="M110.54,-494.39C100.93,-506.67 92.48,-522.94 102.5,-534.5 125.62,-561.18 220.43,-568 284.69,-569.48"/>
<polygon fill="black" stroke="black" points="284.34,-572.97 294.4,-569.66 284.47,-565.97 284.34,-572.97"/>
<text text-anchor="middle" x="136.25" y="-525.2" font-family="Arial" font-size="9.00">Возврат</text>
<text text-anchor="middle" x="136.25" y="-514.7" font-family="Arial" font-size="9.00">к рассмотрению</text>
</g>
<!-- publish_channel -->
<g id="node17" class="node">
<title>publish_channel</title>
<polygon fill="lightcoral" stroke="black" points="414.12,-273 329.88,-273 329.88,-237 414.12,-237 414.12,-273"/>
<text text-anchor="middle" x="372" y="-258.62" font-family="Arial" font-size="10.00">📢 Публикация</text>
<text text-anchor="middle" x="372" y="-244.38" font-family="Arial" font-size="10.00">в канале</text>
</g>
<!-- auto_publish&#45;&gt;publish_channel -->
<g id="edge17" class="edge">
<title>auto_publish&#45;&gt;publish_channel</title>
<path fill="none" stroke="black" d="M148.22,-364.61C191.15,-342.13 270,-302.94 321.77,-278.29"/>
<polygon fill="black" stroke="black" points="323.16,-281.5 330.7,-274.06 320.16,-275.18 323.16,-281.5"/>
</g>
<!-- auto_publish&#45;&gt;publish_channel -->
<g id="edge36" class="edge">
<title>auto_publish&#45;&gt;publish_channel</title>
<path fill="none" stroke="green" d="M157.88,-364.61C205.4,-342.22 284.1,-303.26 331.77,-278.6"/>
<polygon fill="green" stroke="green" points="333.14,-281.83 340.39,-274.11 329.91,-275.62 333.14,-281.83"/>
</g>
<!-- manual_publish&#45;&gt;publish_channel -->
<g id="edge18" class="edge">
<title>manual_publish&#45;&gt;publish_channel</title>
<path fill="none" stroke="black" d="M238.59,-364.74C262.07,-342.91 306.5,-305.16 337.7,-280.38"/>
<polygon fill="black" stroke="black" points="339.63,-283.32 345.33,-274.39 335.31,-277.81 339.63,-283.32"/>
</g>
<!-- manual_publish&#45;&gt;publish_channel -->
<g id="edge37" class="edge">
<title>manual_publish&#45;&gt;publish_channel</title>
<path fill="none" stroke="green" d="M248.22,-364.74C276.14,-343.09 320.47,-305.8 347.92,-281.02"/>
<polygon fill="green" stroke="green" points="350.07,-283.8 355.08,-274.47 345.34,-278.64 350.07,-283.8"/>
</g>
<!-- publish_channel&#45;&gt;update_status -->
<g id="edge22" class="edge">
<title>publish_channel&#45;&gt;update_status</title>
<path fill="none" stroke="black" d="M372,-236.63C372,-217 372,-184.75 372,-161.38"/>
<polygon fill="black" stroke="black" points="375.5,-161.6 372,-151.6 368.5,-161.6 375.5,-161.6"/>
</g>
<!-- user_prefs -->
<g id="node22" class="node">
<title>user_prefs</title>
<polygon fill="orange" stroke="black" points="423.5,-52 284.5,-52 284.5,-16 423.5,-16 423.5,-52"/>
<text text-anchor="middle" x="354" y="-37.62" font-family="Arial" font-size="10.00">👥 user_preferences.json</text>
<text text-anchor="middle" x="354" y="-23.38" font-family="Arial" font-size="10.00">(настройки пользователей)</text>
</g>
<!-- notify_author&#45;&gt;user_prefs -->
<g id="edge26" class="edge">
<title>notify_author&#45;&gt;user_prefs</title>
<path fill="none" stroke="black" d="M412.32,-364.66C422.1,-357.77 431.6,-348.87 437,-338 459.95,-291.77 458.63,-152.61 437,-105.75 428.18,-86.64 411.36,-70.78 395.16,-58.96"/>
<polygon fill="black" stroke="black" points="397.22,-56.13 387.01,-53.33 393.25,-61.89 397.22,-56.13"/>
<text text-anchor="middle" x="500.22" y="-180.2" font-family="Arial" font-size="9.00">Чтение</text>
<text text-anchor="middle" x="500.22" y="-169.7" font-family="Arial" font-size="9.00">настроек пользователя</text>
</g>
<!-- user_notification -->
<g id="node27" class="node">
<title>user_notification</title>
<polygon fill="lightgreen" stroke="black" points="664.75,-284.12 479.25,-284.12 479.25,-225.88 664.75,-225.88 664.75,-284.12"/>
<text text-anchor="middle" x="572" y="-270.62" font-family="Arial" font-size="10.00">✅ Ваш пост одобрен и опубликован!</text>
<text text-anchor="middle" x="572" y="-244.38" font-family="Arial" font-size="10.00">ID: abc12345</text>
<text text-anchor="middle" x="572" y="-232.38" font-family="Arial" font-size="10.00">Время: 15.03.2024 14:30</text>
</g>
<!-- notify_author&#45;&gt;user_notification -->
<g id="edge31" class="edge">
<title>notify_author&#45;&gt;user_notification</title>
<path fill="none" stroke="black" d="M416.64,-364.59C431.99,-357.02 449.69,-347.67 465,-338 487.04,-324.08 510.15,-306.75 529.23,-291.62"/>
<polygon fill="black" stroke="black" points="531.18,-294.54 536.79,-285.56 526.8,-289.08 531.18,-294.54"/>
</g>
<!-- update_status&#45;&gt;pending_posts -->
<g id="edge24" class="edge">
<title>update_status&#45;&gt;pending_posts</title>
<path fill="none" stroke="black" d="M388.33,-113.46C398.74,-105.45 412.14,-95.74 424,-86.75 435.7,-77.88 448.37,-67.88 459.96,-59.06"/>
<polygon fill="black" stroke="black" points="461.88,-61.99 467.77,-53.18 457.68,-56.4 461.88,-61.99"/>
</g>
<!-- update_status&#45;&gt;pending_posts -->
<g id="edge41" class="edge">
<title>update_status&#45;&gt;pending_posts</title>
<path fill="none" stroke="orange" d="M404.74,-113.46C416.74,-105.45 430.14,-95.74 442,-86.75 453.47,-78.06 465.87,-68.28 476.2,-59.58"/>
<polygon fill="orange" stroke="orange" points="478.25,-62.44 483.53,-53.26 473.67,-57.14 478.25,-62.44"/>
</g>
</g>
</svg>
