<?xml version="1.0" encoding="UTF-8" standalone="no"?>
<!DOCTYPE svg PUBLIC "-//W3C//DTD SVG 1.1//EN"
 "http://www.w3.org/Graphics/SVG/1.1/DTD/svg11.dtd">
<!-- Generated by graphviz version 12.2.1 (20241206.2353)
 -->
<!-- Title: SystemArchitecture Pages: 1 -->
<svg width="1250pt" height="426pt"
 viewBox="0.00 0.00 1250.38 426.00" xmlns="http://www.w3.org/2000/svg" xmlns:xlink="http://www.w3.org/1999/xlink">
<g id="graph0" class="graph" transform="scale(1 1) rotate(0) translate(4 422)">
<title>SystemArchitecture</title>
<polygon fill="white" stroke="none" points="-4,4 -4,-422 1246.38,-422 1246.38,4 -4,4"/>
<g id="clust1" class="cluster">
<title>cluster_external</title>
<polygon fill="lightgrey" stroke="lightgrey" points="680.38,-85 680.38,-190.5 822.38,-190.5 822.38,-85 680.38,-85"/>
<text text-anchor="middle" x="751.38" y="-173.2" font-family="Times,serif" font-size="14.00">🌐 Внешние системы</text>
</g>
<g id="clust2" class="cluster">
<title>cluster_core</title>
<polygon fill="lightblue" stroke="lightblue" points="845.38,-111 845.38,-335 1070.38,-335 1070.38,-111 845.38,-111"/>
<text text-anchor="middle" x="957.88" y="-317.7" font-family="Times,serif" font-size="14.00">🏗️ Основные компоненты системы</text>
</g>
<g id="clust3" class="cluster">
<title>cluster_modules</title>
<polygon fill="lightgreen" stroke="lightgreen" points="164.38,-85 164.38,-190.5 642.38,-190.5 642.38,-85 164.38,-85"/>
<text text-anchor="middle" x="403.38" y="-173.2" font-family="Times,serif" font-size="14.00">🔧 Модули и сервисы</text>
</g>
<g id="clust4" class="cluster">
<title>cluster_storage</title>
<polygon fill="lightyellow" stroke="lightyellow" points="1082.38,-85 1082.38,-190.5 1234.38,-190.5 1234.38,-85 1082.38,-85"/>
<text text-anchor="middle" x="1158.38" y="-173.2" font-family="Times,serif" font-size="14.00">💾 Хранилища данных</text>
</g>
<!-- telegram_users -->
<g id="node1" class="node">
<title>telegram_users</title>
<polygon fill="lightpink" stroke="black" points="465.38,-418 371.38,-418 371.38,-382 465.38,-382 465.38,-418"/>
<text text-anchor="middle" x="418.38" y="-403.62" font-family="Arial" font-size="10.00">👥 Пользователи</text>
<text text-anchor="middle" x="418.38" y="-389.38" font-family="Arial" font-size="10.00">Telegram</text>
</g>
<!-- main_bot -->
<g id="node5" class="node">
<title>main_bot</title>
<polygon fill="lightgreen" stroke="black" points="471.5,-273.5 363.25,-273.5 363.25,-237.5 471.5,-237.5 471.5,-273.5"/>
<text text-anchor="middle" x="417.38" y="-259.12" font-family="Arial" font-size="10.00">🤖 Основной бот</text>
<text text-anchor="middle" x="417.38" y="-244.88" font-family="Arial" font-size="10.00">(python&#45;telegram&#45;bot)</text>
</g>
<!-- telegram_users&#45;&gt;main_bot -->
<g id="edge1" class="edge">
<title>telegram_users&#45;&gt;main_bot</title>
<path fill="none" stroke="black" d="M373.37,-381.69C366.38,-377.01 360.09,-371.19 355.88,-364 339.32,-335.75 364.23,-303.07 387.12,-281.22"/>
<polygon fill="black" stroke="black" points="389.23,-284.03 394.27,-274.71 384.52,-278.86 389.23,-284.03"/>
<text text-anchor="middle" x="383.62" y="-355.45" font-family="Arial" font-size="9.00">Команды</text>
<text text-anchor="middle" x="383.62" y="-344.95" font-family="Arial" font-size="9.00">и сообщения</text>
</g>
<!-- telegram_users&#45;&gt;main_bot -->
<g id="edge27" class="edge">
<title>telegram_users&#45;&gt;main_bot</title>
<path fill="none" stroke="blue" stroke-width="2" d="M452.09,-381.51C458.25,-376.71 463.84,-370.88 467.38,-364 471.65,-355.7 469.79,-352.01 467.38,-343 461.68,-321.76 449.37,-300.35 438.39,-284.14"/>
<polygon fill="blue" stroke="blue" stroke-width="2" points="441.47,-282.44 432.84,-276.29 435.75,-286.48 441.47,-282.44"/>
</g>
<!-- telegram_channels -->
<g id="node2" class="node">
<title>telegram_channels</title>
<polygon fill="lightpink" stroke="black" points="1046.25,-418 978.5,-418 978.5,-382 1046.25,-382 1046.25,-418"/>
<text text-anchor="middle" x="1012.38" y="-403.62" font-family="Arial" font-size="10.00">📢 Telegram</text>
<text text-anchor="middle" x="1012.38" y="-389.38" font-family="Arial" font-size="10.00">каналы</text>
</g>
<!-- telegram_channels&#45;&gt;main_bot -->
<g id="edge2" class="edge">
<title>telegram_channels&#45;&gt;main_bot</title>
<path fill="none" stroke="black" d="M978.18,-399.26C914.08,-398.96 771.97,-394.53 657.12,-364 583.56,-344.44 504.02,-304.7 457.57,-279.4"/>
<polygon fill="black" stroke="black" points="459.38,-276.41 448.93,-274.65 456.01,-282.54 459.38,-276.41"/>
<text text-anchor="middle" x="692.75" y="-355.45" font-family="Arial" font-size="9.00">Мониторинг</text>
<text text-anchor="middle" x="692.75" y="-344.95" font-family="Arial" font-size="9.00">(если бот админ)</text>
</g>
<!-- userbot -->
<g id="node6" class="node">
<title>userbot</title>
<polygon fill="lightgreen" stroke="black" points="1142.38,-273.5 1078.38,-273.5 1078.38,-237.5 1142.38,-237.5 1142.38,-273.5"/>
<text text-anchor="middle" x="1110.38" y="-259.12" font-family="Arial" font-size="10.00">👤 Userbot</text>
<text text-anchor="middle" x="1110.38" y="-244.88" font-family="Arial" font-size="10.00">(Pyrogram)</text>
</g>
<!-- telegram_channels&#45;&gt;userbot -->
<g id="edge3" class="edge">
<title>telegram_channels&#45;&gt;userbot</title>
<path fill="none" stroke="black" d="M1007.5,-381.68C1005.18,-369.37 1004.63,-353.26 1013.88,-343 1032.02,-322.84 1052.56,-351.11 1074.38,-335 1090.6,-323.02 1099.71,-301.95 1104.71,-284.65"/>
<polygon fill="black" stroke="black" points="1107.98,-285.99 1107.06,-275.43 1101.2,-284.26 1107.98,-285.99"/>
<text text-anchor="middle" x="1038.62" y="-355.45" font-family="Arial" font-size="9.00">Скрытый</text>
<text text-anchor="middle" x="1038.62" y="-344.95" font-family="Arial" font-size="9.00">мониторинг</text>
</g>
<!-- telegram_channels&#45;&gt;userbot -->
<g id="edge36" class="edge">
<title>telegram_channels&#45;&gt;userbot</title>
<path fill="none" stroke="red" d="M1043.79,-381.51C1050.87,-376.52 1057.9,-370.62 1063.38,-364 1082.8,-340.5 1095.58,-307.72 1102.84,-284.55"/>
<polygon fill="red" stroke="red" points="1106.14,-285.76 1105.63,-275.18 1099.43,-283.77 1106.14,-285.76"/>
</g>
<!-- telegram_chats -->
<g id="node3" class="node">
<title>telegram_chats</title>
<polygon fill="lightpink" stroke="black" points="1176.25,-418 1108.5,-418 1108.5,-382 1176.25,-382 1176.25,-418"/>
<text text-anchor="middle" x="1142.38" y="-403.62" font-family="Arial" font-size="10.00">💬 Telegram</text>
<text text-anchor="middle" x="1142.38" y="-389.38" font-family="Arial" font-size="10.00">чаты</text>
</g>
<!-- telegram_chats&#45;&gt;userbot -->
<g id="edge4" class="edge">
<title>telegram_chats&#45;&gt;userbot</title>
<path fill="none" stroke="black" d="M1123.16,-381.76C1118.61,-376.55 1114.35,-370.47 1111.88,-364 1102.2,-338.7 1103.01,-307.54 1105.53,-285.29"/>
<polygon fill="black" stroke="black" points="1108.99,-285.82 1106.85,-275.44 1102.05,-284.89 1108.99,-285.82"/>
<text text-anchor="middle" x="1136.62" y="-355.45" font-family="Arial" font-size="9.00">Скрытый</text>
<text text-anchor="middle" x="1136.62" y="-344.95" font-family="Arial" font-size="9.00">мониторинг</text>
</g>
<!-- telegram_chats&#45;&gt;userbot -->
<g id="edge37" class="edge">
<title>telegram_chats&#45;&gt;userbot</title>
<path fill="none" stroke="red" d="M1154.05,-381.54C1157.04,-376.15 1159.84,-370.03 1161.38,-364 1163.67,-354.95 1163.83,-352 1161.38,-343 1155.39,-321.07 1142.27,-299.03 1130.84,-282.69"/>
<polygon fill="red" stroke="red" points="1133.96,-281.04 1125.25,-275 1128.29,-285.15 1133.96,-281.04"/>
</g>
<!-- giga_chat_api -->
<g id="node4" class="node">
<title>giga_chat_api</title>
<polygon fill="lightcoral" stroke="black" points="799.38,-129 729.38,-129 729.38,-93 799.38,-93 799.38,-129"/>
<text text-anchor="middle" x="764.38" y="-114.62" font-family="Arial" font-size="10.00">🤖 GigaChat</text>
<text text-anchor="middle" x="764.38" y="-100.38" font-family="Arial" font-size="10.00">API</text>
</g>
<!-- ai_service -->
<g id="node7" class="node">
<title>ai_service</title>
<polygon fill="lightgreen" stroke="black" points="792,-273.5 692.75,-273.5 692.75,-237.5 792,-237.5 792,-273.5"/>
<text text-anchor="middle" x="742.38" y="-259.12" font-family="Arial" font-size="10.00">🧠 AI сервис</text>
<text text-anchor="middle" x="742.38" y="-244.88" font-family="Arial" font-size="10.00">(анализ важности)</text>
</g>
<!-- giga_chat_api&#45;&gt;ai_service -->
<g id="edge11" class="edge">
<title>giga_chat_api&#45;&gt;ai_service</title>
<path fill="none" stroke="black" d="M771,-129.44C778.22,-151.29 787.28,-189.51 775.38,-219.5 774.16,-222.56 772.54,-225.5 770.67,-228.29"/>
<polygon fill="black" stroke="black" points="768.02,-225.99 764.49,-235.98 773.48,-230.38 768.02,-225.99"/>
<text text-anchor="middle" x="800.17" y="-210.95" font-family="Arial" font-size="9.00">Оценка</text>
<text text-anchor="middle" x="800.17" y="-200.45" font-family="Arial" font-size="9.00">важности</text>
</g>
<!-- storage -->
<g id="node9" class="node">
<title>storage</title>
<polygon fill="lightyellow" stroke="black" points="937.5,-273.5 853.25,-273.5 853.25,-237.5 937.5,-237.5 937.5,-273.5"/>
<text text-anchor="middle" x="895.38" y="-259.12" font-family="Arial" font-size="10.00">💾 Хранилище</text>
<text text-anchor="middle" x="895.38" y="-244.88" font-family="Arial" font-size="10.00">(JSON файлы)</text>
</g>
<!-- main_bot&#45;&gt;storage -->
<g id="edge17" class="edge">
<title>main_bot&#45;&gt;storage</title>
<path fill="none" stroke="black" d="M456.44,-273.92C524.57,-303.8 669.74,-357.6 794.12,-337.42 827.91,-331.93 857.14,-304.29 875.39,-282.62"/>
<polygon fill="black" stroke="black" points="878.02,-284.93 881.57,-274.95 872.57,-280.54 878.02,-284.93"/>
<text text-anchor="middle" x="763.38" y="-355.45" font-family="Arial" font-size="9.00">Чтение/запись</text>
<text text-anchor="middle" x="763.38" y="-344.95" font-family="Arial" font-size="9.00">данных</text>
</g>
<!-- message_handler -->
<g id="node10" class="node">
<title>message_handler</title>
<polygon fill="lightyellow" stroke="black" points="452.12,-129 368.62,-129 368.62,-93 452.12,-93 452.12,-129"/>
<text text-anchor="middle" x="410.38" y="-114.62" font-family="Arial" font-size="10.00">📨 Обработчик</text>
<text text-anchor="middle" x="410.38" y="-100.38" font-family="Arial" font-size="10.00">сообщений</text>
</g>
<!-- main_bot&#45;&gt;message_handler -->
<g id="edge5" class="edge">
<title>main_bot&#45;&gt;message_handler</title>
<path fill="none" stroke="black" d="M397.92,-237.33C394.59,-231.85 391.85,-225.61 390.38,-219.5 383.98,-193.07 388.35,-162.11 394.98,-140.22"/>
<polygon fill="black" stroke="black" points="398.28,-141.4 398.23,-130.8 391.66,-139.11 398.28,-141.4"/>
</g>
<!-- main_bot&#45;&gt;message_handler -->
<g id="edge30" class="edge">
<title>main_bot&#45;&gt;message_handler</title>
<path fill="none" stroke="green" d="M415.08,-237.33C412.59,-231.85 409.85,-225.61 408.38,-219.5 402.01,-193.19 406.31,-162.39 409.67,-140.52"/>
<polygon fill="green" stroke="green" points="413.09,-141.28 411.14,-130.87 406.17,-140.23 413.09,-141.28"/>
</g>
<!-- callback_handler -->
<g id="node11" class="node">
<title>callback_handler</title>
<polygon fill="lightyellow" stroke="black" points="350.12,-129 266.62,-129 266.62,-93 350.12,-93 350.12,-129"/>
<text text-anchor="middle" x="308.38" y="-114.62" font-family="Arial" font-size="10.00">🔘 Обработчик</text>
<text text-anchor="middle" x="308.38" y="-100.38" font-family="Arial" font-size="10.00">callback</text>
</g>
<!-- main_bot&#45;&gt;callback_handler -->
<g id="edge6" class="edge">
<title>main_bot&#45;&gt;callback_handler</title>
<path fill="none" stroke="black" d="M362.83,-243.17C318.16,-233.76 262.05,-221.59 260.38,-219.5 249.9,-206.43 272.51,-166.04 290.13,-138.67"/>
<polygon fill="black" stroke="black" points="292.93,-140.79 295.5,-130.51 287.08,-136.94 292.93,-140.79"/>
</g>
<!-- config_manager -->
<g id="node12" class="node">
<title>config_manager</title>
<polygon fill="lightyellow" stroke="black" points="634.62,-129 554.12,-129 554.12,-93 634.62,-93 634.62,-129"/>
<text text-anchor="middle" x="594.38" y="-114.62" font-family="Arial" font-size="10.00">⚙️ Менеджер</text>
<text text-anchor="middle" x="594.38" y="-100.38" font-family="Arial" font-size="10.00">конфигурации</text>
</g>
<!-- main_bot&#45;&gt;config_manager -->
<g id="edge7" class="edge">
<title>main_bot&#45;&gt;config_manager</title>
<path fill="none" stroke="black" d="M422.39,-237.23C427.12,-224.27 435.59,-207.29 449.38,-198.5 485.48,-175.49 508.83,-212.8 545.38,-190.5 564.02,-179.12 576.69,-157.68 584.46,-140.07"/>
<polygon fill="black" stroke="black" points="587.68,-141.45 588.21,-130.87 581.2,-138.81 587.68,-141.45"/>
</g>
<!-- userbot&#45;&gt;storage -->
<g id="edge18" class="edge">
<title>userbot&#45;&gt;storage</title>
<path fill="none" stroke="black" d="M1078.14,-255.5C1044.07,-255.5 989.75,-255.5 949.17,-255.5"/>
<polygon fill="black" stroke="black" points="949.37,-252 939.37,-255.5 949.37,-259 949.37,-252"/>
<text text-anchor="middle" x="1007.94" y="-270.95" font-family="Arial" font-size="9.00">Чтение</text>
<text text-anchor="middle" x="1007.94" y="-260.45" font-family="Arial" font-size="9.00">настроек</text>
</g>
<!-- userbot_session -->
<g id="node18" class="node">
<title>userbot_session</title>
<polygon fill="orange" stroke="black" points="1226.75,-129 1090,-129 1090,-93 1226.75,-93 1226.75,-129"/>
<text text-anchor="middle" x="1158.38" y="-114.62" font-family="Arial" font-size="10.00">👤 userbot_session.session</text>
<text text-anchor="middle" x="1158.38" y="-100.38" font-family="Arial" font-size="10.00">(сессия userbot)</text>
</g>
<!-- userbot&#45;&gt;userbot_session -->
<g id="edge21" class="edge">
<title>userbot&#45;&gt;userbot_session</title>
<path fill="none" stroke="black" d="M1116.26,-237.03C1124.44,-212.75 1139.32,-168.56 1149.03,-139.75"/>
<polygon fill="black" stroke="black" points="1152.23,-141.2 1152.11,-130.61 1145.6,-138.96 1152.23,-141.2"/>
<text text-anchor="middle" x="1155.29" y="-210.95" font-family="Arial" font-size="9.00">Сохранение</text>
<text text-anchor="middle" x="1155.29" y="-200.45" font-family="Arial" font-size="9.00">сессии</text>
</g>
<!-- ai_service&#45;&gt;giga_chat_api -->
<g id="edge10" class="edge">
<title>ai_service&#45;&gt;giga_chat_api</title>
<path fill="none" stroke="black" d="M692.72,-253.34C637.36,-250.87 552.95,-243.21 532.88,-219.5 526.84,-212.38 526.51,-205.33 532.88,-198.5 541.49,-189.25 634.41,-194.58 646.38,-190.5 680.35,-178.91 713.93,-155.03 736.52,-136.64"/>
<polygon fill="black" stroke="black" points="738.61,-139.46 744.05,-130.37 734.13,-134.08 738.61,-139.46"/>
<text text-anchor="middle" x="559.12" y="-205.7" font-family="Arial" font-size="9.00">API запросы</text>
</g>
<!-- ai_service&#45;&gt;giga_chat_api -->
<g id="edge28" class="edge">
<title>ai_service&#45;&gt;giga_chat_api</title>
<path fill="none" stroke="blue" stroke-width="2" d="M746.69,-237.12C747.99,-231.52 749.34,-225.27 750.38,-219.5 755.03,-193.51 758.78,-163.73 761.23,-142.11"/>
<polygon fill="blue" stroke="blue" stroke-width="2" points="764.7,-142.54 762.32,-132.22 757.75,-141.77 764.7,-142.54"/>
</g>
<!-- ai_service&#45;&gt;storage -->
<g id="edge19" class="edge">
<title>ai_service&#45;&gt;storage</title>
<path fill="none" stroke="black" d="M792.47,-255.5C808.18,-255.5 825.58,-255.5 841.54,-255.5"/>
<polygon fill="black" stroke="black" points="841.34,-259 851.34,-255.5 841.34,-252 841.34,-259"/>
<text text-anchor="middle" x="822.62" y="-270.95" font-family="Arial" font-size="9.00">Чтение</text>
<text text-anchor="middle" x="822.62" y="-260.45" font-family="Arial" font-size="9.00">критериев</text>
</g>
<!-- ai_service&#45;&gt;storage -->
<g id="edge32" class="edge">
<title>ai_service&#45;&gt;storage</title>
<path fill="none" stroke="green" d="M792.14,-252.83C805.36,-252.4 819.64,-252.18 832.83,-252.5 835.69,-252.57 838.61,-252.65 841.56,-252.75"/>
<polygon fill="green" stroke="green" points="841.36,-256.25 851.48,-253.13 841.62,-249.25 841.36,-256.25"/>
</g>
<!-- admin_service -->
<g id="node8" class="node">
<title>admin_service</title>
<polygon fill="lightgreen" stroke="black" points="326,-273.5 232.75,-273.5 232.75,-237.5 326,-237.5 326,-273.5"/>
<text text-anchor="middle" x="279.38" y="-259.12" font-family="Arial" font-size="10.00">👑 Админ сервис</text>
<text text-anchor="middle" x="279.38" y="-244.88" font-family="Arial" font-size="10.00">(модерация)</text>
</g>
<!-- admin_service&#45;&gt;storage -->
<g id="edge20" class="edge">
<title>admin_service&#45;&gt;storage</title>
<path fill="none" stroke="black" d="M290.5,-273.93C303.24,-293.11 326.05,-322.11 354.38,-335 378.87,-346.15 387.97,-336.88 414.88,-337.42 554.41,-340.2 761.02,-349.94 801.38,-335 829.93,-324.43 855.81,-301.01 873.15,-282.31"/>
<polygon fill="black" stroke="black" points="875.65,-284.76 879.71,-274.98 870.43,-280.1 875.65,-284.76"/>
<text text-anchor="middle" x="440.38" y="-355.45" font-family="Arial" font-size="9.00">Управление</text>
<text text-anchor="middle" x="440.38" y="-344.95" font-family="Arial" font-size="9.00">постами</text>
</g>
<!-- notification_service -->
<g id="node13" class="node">
<title>notification_service</title>
<polygon fill="lightyellow" stroke="black" points="248.75,-129 172,-129 172,-93 248.75,-93 248.75,-129"/>
<text text-anchor="middle" x="210.38" y="-114.62" font-family="Arial" font-size="10.00">🔔 Сервис</text>
<text text-anchor="middle" x="210.38" y="-100.38" font-family="Arial" font-size="10.00">уведомлений</text>
</g>
<!-- admin_service&#45;&gt;notification_service -->
<g id="edge13" class="edge">
<title>admin_service&#45;&gt;notification_service</title>
<path fill="none" stroke="black" d="M249.47,-237.36C242.97,-232.36 236.74,-226.37 232.38,-219.5 217.3,-195.79 212.29,-163.72 210.76,-140.79"/>
<polygon fill="black" stroke="black" points="214.26,-140.75 210.3,-130.92 207.27,-141.08 214.26,-140.75"/>
</g>
<!-- moderation_service -->
<g id="node14" class="node">
<title>moderation_service</title>
<polygon fill="lightyellow" stroke="black" points="536.5,-129 470.25,-129 470.25,-93 536.5,-93 536.5,-129"/>
<text text-anchor="middle" x="503.38" y="-114.62" font-family="Arial" font-size="10.00">📝 Сервис</text>
<text text-anchor="middle" x="503.38" y="-100.38" font-family="Arial" font-size="10.00">модерации</text>
</g>
<!-- admin_service&#45;&gt;moderation_service -->
<g id="edge12" class="edge">
<title>admin_service&#45;&gt;moderation_service</title>
<path fill="none" stroke="black" d="M320.97,-237.09C350.36,-225.2 390.85,-209.65 427.38,-198.5 442.22,-193.97 449.07,-199.96 461.38,-190.5 477.76,-177.91 488.49,-157.05 495,-140"/>
<polygon fill="black" stroke="black" points="498.18,-141.5 498.18,-130.9 491.58,-139.18 498.18,-141.5"/>
</g>
<!-- important_channel -->
<g id="node19" class="node">
<title>important_channel</title>
<polygon fill="lightcoral" stroke="black" points="94.75,-36 0,-36 0,0 94.75,0 94.75,-36"/>
<text text-anchor="middle" x="47.38" y="-21.62" font-family="Arial" font-size="10.00">📢 Канал важных</text>
<text text-anchor="middle" x="47.38" y="-7.38" font-family="Arial" font-size="10.00">сообщений</text>
</g>
<!-- admin_service&#45;&gt;important_channel -->
<g id="edge22" class="edge">
<title>admin_service&#45;&gt;important_channel</title>
<path fill="none" stroke="black" d="M232.61,-253.05C186.07,-248.96 116.14,-235.15 77.12,-190.5 42.23,-150.56 41.2,-84.78 44,-47.36"/>
<polygon fill="black" stroke="black" points="47.45,-48.06 44.87,-37.78 40.48,-47.42 47.45,-48.06"/>
<text text-anchor="middle" x="118.75" y="-112.95" font-family="Arial" font-size="9.00">Публикация</text>
<text text-anchor="middle" x="118.75" y="-102.45" font-family="Arial" font-size="9.00">важных сообщений</text>
</g>
<!-- admin_service&#45;&gt;important_channel -->
<g id="edge29" class="edge">
<title>admin_service&#45;&gt;important_channel</title>
<path fill="none" stroke="blue" stroke-width="2" d="M232.6,-251.88C191.46,-248.27 130.62,-239.72 81.38,-219.5 60.39,-210.88 49.92,-210.59 39.38,-190.5 15.8,-145.56 27.12,-84.55 37.35,-48.71"/>
<polygon fill="blue" stroke="blue" stroke-width="2" points="40.68,-49.78 40.25,-39.19 33.99,-47.73 40.68,-49.78"/>
</g>
<!-- user_prefs_db -->
<g id="node15" class="node">
<title>user_prefs_db</title>
<polygon fill="orange" stroke="black" points="854.88,-36 715.88,-36 715.88,0 854.88,0 854.88,-36"/>
<text text-anchor="middle" x="785.38" y="-21.62" font-family="Arial" font-size="10.00">👥 user_preferences.json</text>
<text text-anchor="middle" x="785.38" y="-7.38" font-family="Arial" font-size="10.00">(настройки пользователей)</text>
</g>
<!-- storage&#45;&gt;user_prefs_db -->
<g id="edge14" class="edge">
<title>storage&#45;&gt;user_prefs_db</title>
<path fill="none" stroke="black" d="M884.13,-237.24C869.51,-206.1 844.78,-138.79 817.38,-85 810.72,-71.93 802.32,-58.06 795.55,-46.42"/>
<polygon fill="black" stroke="black" points="798.62,-44.74 790.64,-37.77 792.53,-48.19 798.62,-44.74"/>
</g>
<!-- storage&#45;&gt;user_prefs_db -->
<g id="edge33" class="edge">
<title>storage&#45;&gt;user_prefs_db</title>
<path fill="none" stroke="orange" d="M894.77,-237.24C887.51,-206.1 862.78,-138.79 835.38,-85 828.51,-71.53 819.8,-57.21 811.42,-45.36"/>
<polygon fill="orange" stroke="orange" points="814.49,-43.62 805.72,-37.67 808.86,-47.79 814.49,-43.62"/>
</g>
<!-- bot_config_db -->
<g id="node16" class="node">
<title>bot_config_db</title>
<polygon fill="orange" stroke="black" points="983.62,-36 873.12,-36 873.12,0 983.62,0 983.62,-36"/>
<text text-anchor="middle" x="928.38" y="-21.62" font-family="Arial" font-size="10.00">🤖 bot_config.json</text>
<text text-anchor="middle" x="928.38" y="-7.38" font-family="Arial" font-size="10.00">(конфигурация бота)</text>
</g>
<!-- storage&#45;&gt;bot_config_db -->
<g id="edge15" class="edge">
<title>storage&#45;&gt;bot_config_db</title>
<path fill="none" stroke="black" d="M894.06,-237.18C895.99,-196.95 909.74,-96.84 919.8,-47.46"/>
<polygon fill="black" stroke="black" points="923.19,-48.34 921.88,-37.82 916.35,-46.86 923.19,-48.34"/>
</g>
<!-- storage&#45;&gt;bot_config_db -->
<g id="edge34" class="edge">
<title>storage&#45;&gt;bot_config_db</title>
<path fill="none" stroke="orange" d="M901.54,-237.18C910.87,-197.03 925.14,-97.26 928.95,-47.77"/>
<polygon fill="orange" stroke="orange" points="932.44,-48.06 929.59,-37.85 925.45,-47.61 932.44,-48.06"/>
</g>
<!-- pending_posts_db -->
<g id="node17" class="node">
<title>pending_posts_db</title>
<polygon fill="orange" stroke="black" points="1114.75,-36 1002,-36 1002,0 1114.75,0 1114.75,-36"/>
<text text-anchor="middle" x="1058.38" y="-21.62" font-family="Arial" font-size="10.00">📝 pending_posts.json</text>
<text text-anchor="middle" x="1058.38" y="-7.38" font-family="Arial" font-size="10.00">(очередь модерации)</text>
</g>
<!-- storage&#45;&gt;pending_posts_db -->
<g id="edge16" class="edge">
<title>storage&#45;&gt;pending_posts_db</title>
<path fill="none" stroke="black" d="M901.64,-237.34C905.85,-231.75 910.94,-225.45 915.38,-219.5 960.47,-159 1008.48,-84.31 1036.1,-45.4"/>
<polygon fill="black" stroke="black" points="1038.76,-47.69 1041.78,-37.53 1033.09,-43.59 1038.76,-47.69"/>
</g>
<!-- storage&#45;&gt;pending_posts_db -->
<g id="edge35" class="edge">
<title>storage&#45;&gt;pending_posts_db</title>
<path fill="none" stroke="orange" d="M918.75,-237.34C923.85,-231.75 928.94,-225.45 933.38,-219.5 978.09,-159.51 1025.67,-85.58 1047.27,-46.39"/>
<polygon fill="orange" stroke="orange" points="1050.32,-48.11 1051.94,-37.64 1044.14,-44.82 1050.32,-48.11"/>
</g>
<!-- message_handler&#45;&gt;ai_service -->
<g id="edge8" class="edge">
<title>message_handler&#45;&gt;ai_service</title>
<path fill="none" stroke="black" d="M416.73,-129.48C426.82,-154.41 449.09,-199.39 484.62,-219.5 517.21,-237.94 615.69,-247.17 681.06,-251.39"/>
<polygon fill="black" stroke="black" points="680.74,-254.88 690.94,-252.01 681.18,-247.89 680.74,-254.88"/>
<text text-anchor="middle" x="504.5" y="-210.95" font-family="Arial" font-size="9.00">Анализ</text>
<text text-anchor="middle" x="504.5" y="-200.45" font-family="Arial" font-size="9.00">важности</text>
</g>
<!-- message_handler&#45;&gt;ai_service -->
<g id="edge31" class="edge">
<title>message_handler&#45;&gt;ai_service</title>
<path fill="none" stroke="green" d="M412.47,-129.4C416.41,-153.82 427.32,-197.68 456.38,-219.5 490.74,-245.3 607.79,-252.24 681.07,-254.01"/>
<polygon fill="green" stroke="green" points="680.85,-257.5 690.92,-254.22 681,-250.5 680.85,-257.5"/>
</g>
<!-- message_handler&#45;&gt;admin_service -->
<g id="edge9" class="edge">
<title>message_handler&#45;&gt;admin_service</title>
<path fill="none" stroke="black" d="M404.3,-129.41C396.84,-147.96 382.27,-176.53 359.38,-190.5 344.31,-199.69 292.32,-185.52 280.38,-198.5 273.65,-205.8 272.13,-216.18 272.74,-226.03"/>
<polygon fill="black" stroke="black" points="269.22,-226.18 274.03,-235.62 276.16,-225.24 269.22,-226.18"/>
<text text-anchor="middle" x="304.38" y="-205.7" font-family="Arial" font-size="9.00">Модерация</text>
</g>
<!-- config_manager&#45;&gt;storage -->
<g id="edge25" class="edge">
<title>config_manager&#45;&gt;storage</title>
<path fill="none" stroke="black" d="M606.87,-129.36C625.43,-153.71 662.69,-197.51 705.38,-219.5 706.92,-220.3 786.41,-234.79 842.07,-244.87"/>
<polygon fill="black" stroke="black" points="841.25,-248.28 851.71,-246.62 842.5,-241.39 841.25,-248.28"/>
<text text-anchor="middle" x="738.38" y="-210.95" font-family="Arial" font-size="9.00">Управление</text>
<text text-anchor="middle" x="738.38" y="-200.45" font-family="Arial" font-size="9.00">конфигурацией</text>
</g>
<!-- admin_notifications -->
<g id="node20" class="node">
<title>admin_notifications</title>
<polygon fill="lightcoral" stroke="black" points="344.88,-36 247.88,-36 247.88,0 344.88,0 344.88,-36"/>
<text text-anchor="middle" x="296.38" y="-21.62" font-family="Arial" font-size="10.00">🔔 Уведомления</text>
<text text-anchor="middle" x="296.38" y="-7.38" font-family="Arial" font-size="10.00">администраторам</text>
</g>
<!-- notification_service&#45;&gt;admin_notifications -->
<g id="edge23" class="edge">
<title>notification_service&#45;&gt;admin_notifications</title>
<path fill="none" stroke="black" d="M242.86,-92.51C250.47,-87.49 258.16,-81.58 264.38,-75 272.23,-66.69 278.91,-56.11 284.1,-46.38"/>
<polygon fill="black" stroke="black" points="287.11,-48.18 288.46,-37.67 280.85,-45.05 287.11,-48.18"/>
<text text-anchor="middle" x="307.2" y="-66.45" font-family="Arial" font-size="9.00">Уведомления</text>
<text text-anchor="middle" x="307.2" y="-55.95" font-family="Arial" font-size="9.00">админам</text>
</g>
<!-- user_notifications -->
<g id="node21" class="node">
<title>user_notifications</title>
<polygon fill="lightcoral" stroke="black" points="229.5,-36 139.25,-36 139.25,0 229.5,0 229.5,-36"/>
<text text-anchor="middle" x="184.38" y="-21.62" font-family="Arial" font-size="10.00">📱 Уведомления</text>
<text text-anchor="middle" x="184.38" y="-7.38" font-family="Arial" font-size="10.00">пользователям</text>
</g>
<!-- notification_service&#45;&gt;user_notifications -->
<g id="edge24" class="edge">
<title>notification_service&#45;&gt;user_notifications</title>
<path fill="none" stroke="black" d="M205.48,-92.88C201.8,-80 196.68,-62.06 192.4,-47.09"/>
<polygon fill="black" stroke="black" points="195.86,-46.46 189.75,-37.8 189.13,-48.38 195.86,-46.46"/>
<text text-anchor="middle" x="230.08" y="-66.45" font-family="Arial" font-size="9.00">Уведомления</text>
<text text-anchor="middle" x="230.08" y="-55.95" font-family="Arial" font-size="9.00">пользователям</text>
</g>
<!-- moderation_service&#45;&gt;storage -->
<g id="edge26" class="edge">
<title>moderation_service&#45;&gt;storage</title>
<path fill="none" stroke="black" d="M507.86,-129.27C513.51,-147.43 525.02,-175.39 545.38,-190.5 559.93,-201.3 568.66,-191.47 585.38,-198.5 600.63,-204.92 600.57,-213.86 616.12,-219.5 693.89,-247.71 719.44,-226.13 801.38,-237.5 814.46,-239.32 828.51,-241.65 841.64,-244"/>
<polygon fill="black" stroke="black" points="840.96,-247.43 851.42,-245.79 842.21,-240.55 840.96,-247.43"/>
<text text-anchor="middle" x="642.75" y="-210.95" font-family="Arial" font-size="9.00">Обновление</text>
<text text-anchor="middle" x="642.75" y="-200.45" font-family="Arial" font-size="9.00">статусов</text>
</g>
</g>
</svg>
